<svg width="126" height="96" viewBox="0 0 126 96" fill="none" xmlns="http://www.w3.org/2000/svg">
<g clip-path="url(#clip0_390_2864)">
<path d="M125.416 43.6197C123.193 21.4858 107.425 1.52295 84.245 0.00930236C83.233 -0.0598931 82.6448 0.545567 82.4546 1.29807C66.5742 -1.27081 49.7511 10.3973 42.9267 24.2191C41.8715 26.3555 40.9979 28.5611 40.2886 30.8186C35.1941 28.6822 30.1775 26.3641 25.2646 23.8125C26.1468 20.7679 23.6298 18.1212 21.3637 16.4086C17.2639 13.2948 12.4807 10.8816 8.08683 8.21761C6.84996 7.46511 5.63039 8.91821 6.20991 10.0945C7.54192 12.8018 8.89988 15.5264 10.4741 18.1039C7.27378 18.078 4.0735 19.2889 1.0808 20.2922C-0.432849 20.8025 -0.285809 22.6708 1.0808 23.2244C6.32235 25.3608 11.512 27.5577 16.6411 29.9536C17.4542 30.3342 18.1807 30.118 18.7083 29.4087C19.876 27.8691 21.2426 26.7187 22.7995 25.6895C22.9206 25.8538 23.0849 25.9922 23.3012 26.1133C28.5946 28.8465 34.0351 31.2251 39.5534 33.4134C35.5141 49.2938 39.5361 67.1548 49.6819 79.9733C61.9641 95.499 83.7174 100.516 101.475 91.6933C119.215 82.8535 127.328 62.6831 125.416 43.6197ZM22.8773 23.5876C20.715 24.392 18.9332 25.4819 17.186 26.8831C13.51 25.1618 9.79942 23.5012 6.05422 21.9529C7.88789 21.4685 9.73022 21.0101 11.4601 20.2836C11.8926 20.1019 12.1434 19.7473 12.2126 19.384C12.6451 19.237 12.9738 18.8391 12.7835 18.2855C12.1521 16.4865 11.4082 14.722 10.6125 12.9834C12.5759 14.1944 14.5393 15.3966 16.5027 16.6162C19.5906 18.5277 21.6578 20.1798 22.9033 23.5876C22.886 23.5876 22.886 23.579 22.8773 23.5876ZM104.658 85.284C89.8412 95.6374 69.2815 94.1497 56.2641 81.5042C44.2674 69.8621 39.2507 51.015 43.1862 34.7973C45.9972 35.8612 48.8256 36.8818 51.6713 37.8765C52.2508 38.0754 52.8303 38.283 53.4098 38.4906C48.8083 51.1534 55.3646 65.7017 65.5795 73.7284C75.7686 81.7291 90.7753 82.9054 100.791 73.936C110.877 64.8973 113.592 48.9564 109.813 36.3715C105.592 22.3075 91.8132 11.7639 76.8411 14.4452C76.4692 14.5144 76.1837 14.6874 75.9761 14.9123C66.038 14.6182 58.0718 27.6269 54.3266 36.2245C50.815 34.9703 47.3293 33.6642 43.8695 32.2803C43.8781 32.2544 43.8868 32.2198 43.8954 32.1938C46.7324 22.9995 52.7351 15.1804 60.978 10.181C68.7971 5.4325 77.4119 4.26482 86.4073 4.77514C86.9263 4.80109 87.2723 4.5589 87.4626 4.20428C123.626 9.61882 134.299 64.5686 104.658 85.284ZM78.7872 68.0025C89.2789 70.0524 98.8625 62.5014 100.402 52.1221C101.172 46.9238 99.6669 41.5958 96.6742 37.3229C93.9842 33.4912 89.1925 28.8724 84.1671 29.4001C83.553 29.4606 83.1033 29.7547 82.8005 30.1439C75.6734 27.4107 68.4598 33.1366 65.1471 39.8399C62.7944 39.0788 60.4504 38.3263 58.1237 37.5478C59.1963 35.0741 60.5542 32.6609 62.0333 30.2391C66.0812 23.6222 72.2396 16.3827 81.0188 18.6142C81.5896 18.7613 82.0567 18.4326 82.2556 17.9915C94.9184 18.6921 104.805 28.6303 107.036 41.4747C109.398 55.0629 103.507 72.8894 88.4659 75.9772C73.4678 79.0564 59.5855 66.5926 56.3593 52.5459C55.3127 47.979 55.8316 43.8273 57.2155 39.8572C59.5076 40.6789 61.8084 41.492 64.1178 42.2964C63.8237 43.17 63.5988 44.0435 63.4518 44.8998C61.7219 55.2965 68.2176 65.9352 78.7872 68.0025ZM81.8405 48.0828C82.1086 48.0309 82.3075 47.9012 82.4632 47.7369C82.541 47.7542 82.6189 47.7801 82.7054 47.7974C83.4579 47.9617 84.0461 46.8287 83.259 46.474C83.0514 46.3789 82.8438 46.301 82.6448 46.2059C82.5497 45.9897 82.4027 45.7994 82.2037 45.6696C82.1691 45.5918 82.1345 45.5226 82.0826 45.4448C81.7799 44.9863 81.4166 44.5539 81.0361 44.1473C82.8265 44.5712 84.5737 45.1161 85.2743 47.0795C85.897 48.8353 85.0926 51.188 83.1984 51.7675C80.716 52.5286 79.4705 50.6863 79.2197 48.5239C80.1019 48.4029 80.9755 48.2558 81.8405 48.0828ZM70.5357 38.5944C70.527 39.5977 70.5184 40.6011 70.5097 41.6131C69.9129 41.4141 69.3161 41.2065 68.7193 41.0076C69.2555 39.9005 69.9129 38.8539 70.6913 37.9025C70.6049 38.11 70.5357 38.3349 70.5357 38.5944ZM70.5011 44.4155C70.4924 45.315 70.4924 46.2146 70.4924 47.1141C70.4924 48.1088 71.3055 48.8353 72.2655 48.8872C73.39 48.9478 74.5057 48.9391 75.6215 48.8872C75.855 52.693 78.4931 55.7981 82.6708 55.6251C86.8312 55.4608 89.6336 51.4215 89.1838 47.4514C88.7167 43.2824 84.5218 39.9956 80.3787 40.6011C80.0068 40.653 79.7213 40.826 79.5138 41.0681C79.0986 41.1892 78.7094 41.4055 78.3547 41.6823C78.2509 41.5871 78.1385 41.492 78.0347 41.3968C76.5557 40.0389 75.0766 38.6809 73.5975 37.3229C72.9575 36.7348 72.058 36.7175 71.4006 37.0981C71.9715 36.5099 72.5942 35.965 73.2689 35.4893C76.5643 33.1799 80.4825 33.102 84.3401 33.2923C84.5391 33.301 84.7121 33.2491 84.8591 33.1712C89.106 33.6296 92.8339 38.0235 94.6762 41.4833C96.6396 45.168 97.2797 49.4321 96.1552 53.4801C94.0102 61.1694 86.4679 66.0563 78.5796 63.9805C70.9422 61.9738 66.3493 54.345 67.1105 46.6557C67.2143 45.6004 67.4219 44.5452 67.7246 43.5246C68.6501 43.8273 69.5756 44.1214 70.5011 44.4155Z" fill="#FFE01F" fill-opacity="0.4"/>
</g>
<defs>
<clipPath id="clip0_390_2864">
<rect width="125.693" height="96" fill="white"/>
</clipPath>
</defs>
</svg>
