<svg width="57" height="55" viewBox="0 0 57 55" fill="none" xmlns="http://www.w3.org/2000/svg">
<g clip-path="url(#clip0_390_2868)">
<path d="M19.6987 36.6022C19.6198 33.0292 18.9705 29.5266 18.531 25.9668C18.1237 22.4243 17.9882 18.6711 19.2585 15.1406C20.5195 11.5967 23.2484 8.69171 26.5452 6.93749C29.8372 5.17657 33.9049 4.62045 37.5427 5.91545C41.1631 7.24264 43.9699 10.2304 45.3678 13.7173C46.059 15.4711 46.3999 17.3809 46.273 19.2793C46.1642 21.1749 45.5285 23.0604 44.515 24.6214C43.5271 26.2044 42.2794 27.5599 41.0116 28.8297L37.1933 32.5893C34.6173 35.0571 32.0789 37.5785 29.468 40.0108C31.8138 37.3147 34.2408 34.6916 36.6215 32.031L40.2425 28.09C41.4346 26.7835 42.5784 25.4509 43.4257 23.9666C44.2891 22.4909 44.7656 20.877 44.8412 19.2047C44.9102 17.537 44.5769 15.8517 43.9268 14.2989C42.6427 11.202 40.1098 8.56169 36.9803 7.4497C33.8615 6.31021 30.2521 6.76454 27.252 8.30056C24.2264 9.81448 21.7129 12.4283 20.4448 15.5774C19.1754 18.7674 19.1029 22.3668 19.3191 25.8934C19.4972 29.4368 19.9964 33.0247 19.6987 36.6022Z" fill="#FFBB07"/>
<path d="M22.2452 36.8009C24.8099 33.2915 26.4206 29.1922 26.8509 24.9919C26.9227 24.4817 26.8853 24.0582 26.7855 23.5885C26.6864 23.1482 26.4902 22.7262 26.2681 22.5522C26.1594 22.4686 26.093 22.4452 25.9978 22.452C25.8779 22.4663 25.7988 22.4818 25.7212 22.5563C25.5584 22.6805 25.4269 23.0627 25.4709 23.3817C25.4933 23.6558 25.7003 24.0503 25.9963 24.3723C26.295 24.7124 26.6908 25.0343 27.1055 25.383C27.9254 26.0669 28.7399 26.7147 29.6077 27.1251C30.4763 27.5651 31.3518 27.7302 32.2115 27.5166C33.0672 27.3258 33.7749 26.7391 33.9288 26.0613C34.0055 25.7576 33.9299 25.3508 33.7607 25.1098C33.5942 24.8868 33.4179 24.8207 33.1586 24.8927C32.906 24.9601 32.578 25.2902 32.3104 25.678C32.0447 26.0543 31.7934 26.5506 31.5279 27.0269C29.4241 30.8225 27.2606 34.5901 24.957 38.2861C26.6583 34.2731 28.4979 30.3431 30.3971 26.4411C30.6398 25.9609 30.8436 25.468 31.1666 24.9314C31.4951 24.431 31.8945 23.8608 32.6723 23.5448C33.0615 23.4015 33.5031 23.3614 33.9329 23.4895C34.3627 23.6177 34.719 23.8974 34.9627 24.2161C35.432 24.8563 35.5885 25.6061 35.4567 26.3583C35.3089 27.1018 34.8921 27.7042 34.3699 28.1707C33.8403 28.6124 33.2367 28.9061 32.6049 29.0597C31.973 29.2133 31.3249 29.2584 30.6733 29.156C30.0331 29.0556 29.447 28.8472 28.9005 28.5812C27.8093 28.0376 26.9222 27.3008 26.0902 26.5854C25.6823 26.232 25.2354 25.8659 24.8199 25.3879C24.4131 24.8938 24.0156 24.3132 23.9482 23.4909C23.9097 22.7382 24.1225 21.9591 24.7987 21.3845C25.1369 21.0972 25.6126 20.9632 26.0281 20.9714C26.4752 20.9675 26.9413 21.1901 27.2339 21.4645C27.8264 22.0382 28.0122 22.6874 28.1404 23.2972C28.2457 23.903 28.2392 24.5772 28.13 25.1337C27.4171 29.5723 25.3379 33.7306 22.2452 36.8009Z" fill="#FFBB07"/>
<path d="M29.9557 40.7058C28.8042 40.2046 27.6368 39.7945 26.446 39.4509C25.2639 39.0911 24.045 38.8071 22.8468 38.4387C22.2433 38.2625 21.6412 38.0454 21.0867 37.9248C20.5209 37.8022 19.9658 37.752 19.5357 37.8939C19.3173 37.9673 19.1204 38.0855 19.0434 38.1895C18.9397 38.3123 18.8696 38.5114 18.8584 38.7092C18.8406 38.9116 18.8817 39.1126 18.9502 39.2245C19.0368 39.3336 19.0408 39.3108 19.1206 39.3248L19.0178 40.7164C18.7517 40.6932 18.4475 40.7868 18.2092 40.9741C17.9708 41.1614 17.8069 41.4264 17.7697 41.6724C17.7325 41.9184 17.8032 42.2186 17.9724 42.4597C18.1416 42.7008 18.3751 42.8767 18.6125 42.9301L18.3591 44.4773C17.9884 44.4476 17.6315 44.7081 17.3982 45.2018C17.1783 45.686 17.1475 46.2973 17.3284 46.7401C17.7318 47.7563 18.9554 48.5169 20.2584 49.0916C21.5936 49.6838 22.9249 50.2987 24.0613 50.0808C24.3662 50.0167 24.5303 49.9515 24.7486 49.7783C24.9535 49.6145 25.1275 49.3924 25.2465 49.1489C25.4885 48.6392 25.4744 48.1493 25.1712 47.9024L26.0225 46.9649C26.1534 47.123 26.3419 47.2206 26.5919 47.235C26.8353 47.2541 27.1288 47.1881 27.3752 47.055C27.891 46.793 28.2623 46.2825 28.1464 45.804L27.9935 45.2017L28.5746 45.2036C29.6665 45.2069 30.8094 44.2148 30.903 43.0096C31.0127 41.8131 30.0821 40.4871 28.7412 40.2288C30.1086 40.2686 31.4138 41.5016 31.464 43.0256C31.4914 44.5457 30.264 45.987 28.6315 46.1533L29.0597 45.5529C29.2212 46.0393 29.1461 46.6017 28.9181 47.0316C28.6834 47.4663 28.342 47.8058 27.9415 48.047C27.541 48.2881 27.0794 48.4422 26.5687 48.4408C26.0626 48.4462 25.488 48.2398 25.1061 47.8381L25.9575 46.9007C26.3962 47.2125 26.6931 47.7637 26.7555 48.2797C26.8225 48.8024 26.7186 49.2952 26.5314 49.7264C26.3376 50.1623 26.0586 50.5481 25.6964 50.8723C25.3523 51.1938 24.8157 51.4404 24.3909 51.5187C23.4857 51.7243 22.586 51.5961 21.8089 51.3719C21.0204 51.1456 20.3229 50.8355 19.6235 50.5368C18.926 50.2267 18.2004 49.8764 17.5168 49.3867C16.8351 48.8855 16.1956 48.2449 15.8265 47.3345C15.4767 46.3805 15.5619 45.3911 15.9656 44.528C16.1709 44.094 16.4786 43.6781 16.9159 43.3612C17.3485 43.0376 17.9482 42.8666 18.4918 42.9148L18.2384 44.4621C17.5646 44.2853 17.0204 43.8376 16.6873 43.2918C16.3474 42.7506 16.1837 42.0759 16.3196 41.4008C16.4555 40.7257 16.8643 40.1688 17.3732 39.8116C17.8841 39.443 18.5354 39.2458 19.2024 39.3274L19.0996 40.7189C18.548 40.7163 17.9751 40.2988 17.7781 39.8473C17.563 39.3985 17.541 38.9541 17.6015 38.5419C17.6687 38.1249 17.829 37.7125 18.1409 37.3736C18.4796 37.0159 18.8775 36.8566 19.2474 36.7569C20.026 36.5702 20.7514 36.7208 21.387 36.9144C22.0388 37.1166 22.5854 37.3827 23.1647 37.5958C24.3195 38.0447 25.4876 38.4842 26.6478 38.9694C27.7784 39.4552 28.9112 40.0295 29.9557 40.7058Z" fill="#FFBB07"/>
</g>
<defs>
<clipPath id="clip0_390_2868">
<rect width="35.614" height="44" fill="white" transform="translate(36.1992) rotate(54.9351)"/>
</clipPath>
</defs>
</svg>
