<svg width="1440" height="367" viewBox="0 0 1440 367" fill="none" xmlns="http://www.w3.org/2000/svg">
<path d="M1378.59 49.2553C1372.39 49.2553 1366.38 50.0731 1360.64 51.5784C1350.21 21.5432 1321.74 0 1288.24 0C1261.62 0 1238.19 13.5907 1224.43 34.2377C1219.35 30.8966 1213.27 28.9389 1206.73 28.9389C1193.54 28.9389 1182.2 36.8305 1177.15 48.1677C1169.83 44.6003 1161.63 42.6078 1152.95 42.6078C1124.62 42.6078 1101.26 63.9422 1097.93 91.4629C1084.34 72.9737 1062.49 60.984 1037.83 60.984C1005.23 60.984 977.512 81.9616 967.354 111.196C961.776 109.735 955.92 108.934 949.882 108.934C912.613 108.934 882.32 138.769 881.391 175.922C873.575 172.119 864.796 169.979 855.522 169.979C846.63 169.979 838.18 171.937 830.615 175.469C823.406 164.001 810.68 156.397 796.192 156.397C774.53 156.397 756.824 173.372 755.575 194.785C752.192 193.332 748.479 192.549 744.592 192.549C735.874 192.549 728.092 196.525 722.93 202.772C717.821 199.805 712.017 197.848 705.753 197.23C701.268 196.786 696.879 197.056 692.697 197.935C692.541 169.857 671.261 145.852 642.78 143.006C635.077 142.241 627.59 143.102 620.65 145.295C620.849 144.033 621.092 142.789 621.222 141.51C624.701 106.515 599.231 75.3142 564.331 71.8339C536.171 69.0235 510.492 85.1287 499.804 109.848C495.259 107.568 490.262 106.028 484.9 105.489C466.691 103.67 450.061 113.58 442.34 129.076C436.345 124.639 429.145 121.672 421.199 120.88C407.978 119.558 395.572 124.413 386.81 133.096C374.465 107.82 348.579 90.4188 318.606 90.4188C303.164 90.4188 288.772 95.0389 276.791 103.009C276.956 101.695 277.026 100.355 277.026 98.9891C277.026 79.9604 261.662 64.5165 242.681 64.5165C237.935 64.5165 233.398 65.4736 229.269 67.2485C227.742 41.1113 206.115 20.3773 179.673 20.3773C161.984 20.3773 146.447 29.6611 137.641 43.6693C128.402 39.3624 118.096 36.9697 107.235 36.9697C67.2075 36.9697 34.771 69.502 34.771 109.639C34.771 119.358 36.6796 128.624 40.141 137.073C13.3346 141.762 -7 165.22 -7 193.445C-7 193.897 -6.99132 194.341 -6.98265 194.794H-7V234.426V344.813V367H1101.57H1449V234.417V119.871C1449 80.874 1417.47 49.2553 1378.59 49.2553Z" fill="white"/>
</svg>
