<svg width="272" height="134" viewBox="0 0 272 134" fill="none" xmlns="http://www.w3.org/2000/svg">
<path d="M263.976 103.373C258.813 110.082 248.559 112.495 238.914 108.767C237.794 110.818 236.003 113.738 233.3 116.802C217.7 134.418 188.923 137.205 167.587 130.834C162.204 129.23 154.276 126.141 145.703 119.794C142.634 121.363 138.628 123.04 133.781 124.21C126.291 126.02 119.812 125.887 115.367 125.429C105.138 129.362 96.0166 131.365 88.7584 132.427C80.9279 133.573 46.1474 137.856 17.8699 118.902C8.27362 112.471 5.59445 107.5 4.66892 103.301C2.72043 94.481 7.45769 84.3098 11.9636 81.414C13.5102 80.4126 17.0296 78.265 20.817 74.1627C21.4138 73.5112 21.9739 72.739 22.5828 71.6652C28.1239 61.7594 17.5411 53.9289 20.1838 41.6703C23.2892 27.228 43.7118 12.5926 59.1049 15.3435C66.8379 16.731 69.1639 21.7744 76.3977 20.7609C85.5678 19.4699 86.335 10.7103 94.7866 9.31075C104.797 7.65777 117.365 17.6842 119.191 27.5779C120.153 32.8022 118.229 38.6057 118.997 38.7746C119.581 38.8953 119.946 35.529 122.553 33.1039C125.95 29.9307 132.124 29.3394 136.996 31.4992C141.721 33.5985 145.557 38.4609 145.399 43.263C145.228 48.8734 139.651 52.7585 140.138 53.2411C140.637 53.7358 145.484 48.5356 152.255 45.109C161.888 40.2346 172.276 43.1303 173.749 43.5646C185.55 47.0274 192.503 57.4641 193.283 58.6586C195.804 62.5436 196.059 64.7154 198.653 65.6927C203.013 67.3457 206.082 62.6402 215.715 60.4322C219.758 59.5031 224.337 58.4535 229.305 60.3598C236.393 63.0745 239.425 69.7106 239.669 70.2776C241.946 75.4899 240.034 78.3253 242.348 79.9421C245.429 82.0897 249.399 77.3239 257.023 78.6269C258.521 78.8803 261.991 79.3871 264.5 81.8122C269.432 86.6022 268.835 97.0509 263.976 103.373Z" fill="#E9F4F6"/>
<path d="M226.823 88.0124C221.927 85.4183 213.463 80.942 203.356 79.4701C186.44 77.0208 181.995 85.5028 168.137 82.3537C156.251 79.6631 155.52 72.5324 144.243 68.1285C135.913 64.8829 122.773 63.4833 102.29 73.0029C99.781 70.433 94.9828 66.2704 87.8221 64.1589C75.51 60.5393 59.7394 64.0383 53.4068 73.5459C46.855 83.3793 54.4541 93.5746 46.5749 100.959C41.6306 105.58 34.2385 105.712 32.8258 105.737C22.4866 105.918 16.629 98.811 13.7671 100.959C11.368 102.769 12.5858 110.008 15.74 115.498C27.4066 135.864 67.4725 135.562 88.7476 132.413C100.451 130.676 109.682 127.599 115.357 125.415C119.802 125.874 126.281 125.995 133.77 124.197C138.617 123.026 142.624 121.349 145.692 119.781C154.266 126.127 162.194 129.216 167.576 130.821C188.912 137.179 217.689 134.392 233.289 116.789C236.005 113.724 237.795 110.804 238.903 108.753C241.985 109.911 246.697 111.082 252.141 110.153C254.723 109.706 262.639 108.367 263.966 103.36C264.672 100.717 263.491 97.2304 261.238 96.1928C258.693 95.0224 256.294 97.713 252.799 98.8231C245.248 101.212 238.66 94.2865 226.823 88.0124Z" fill="#CEEAF0"/>
<path d="M268.525 82.8129C267.855 81.8959 265.09 78.3487 260.049 76.8043C255.543 75.4168 251.731 76.4062 249.052 77.0939C246.105 77.854 243.852 78.9882 242.378 79.8448C242.719 77.3352 243.365 70.0235 238.713 63.9546C230.7 53.53 214.783 56.9325 213.224 57.2944C205.783 59.0077 200.888 63.3151 198.659 65.5834C198.074 63.3513 194.153 49.3915 180.282 42.6107C176.946 40.9819 168.031 37.3261 157.461 40.0046C152.76 41.1991 149.253 43.2744 147.097 44.7826C147.268 37.4467 142.859 30.9917 136.466 28.8561C128.976 26.3465 122.497 31.0038 121.901 31.4381C121.949 30.6659 122.619 13.907 108.773 4.74931C97.0695 -2.9726 84.4287 0.948676 83.223 1.34684C74.3087 4.29081 69.5227 10.6614 68.0004 12.8935C66.2224 12.2058 47.2611 5.19571 30.0535 16.5614C16.6089 25.4416 10.2885 41.549 12.4927 55.5691C13.4791 61.8914 16.0365 66.7055 17.8998 69.6254C15.6712 70.6268 12.3466 72.4125 9.09504 75.5254C7.451 77.0939 3.63926 80.8101 1.60552 86.8911C0.789588 89.3403 -1.79217 96.9778 2.05611 104.784C5.84349 112.482 13.808 116.102 14.2585 115.595C14.4656 115.366 13.1869 114.256 11.762 112.132C10.9826 110.962 7.37793 105.303 7.75545 97.8948C8.21822 88.8698 14.2951 83.1025 15.9757 81.6184C20.92 77.2507 26.3148 76.0321 28.7018 75.646C28.0076 72.1832 26.327 61.5294 32.1116 50.2723C32.8545 48.8124 40.2831 34.9009 56.4191 30.5815C63.4215 28.7113 69.5227 29.3146 72.6524 29.8334C82.7603 31.5226 86.3284 36.9279 98.4456 40.0167C103.366 41.2715 107.518 41.6093 110.124 41.7058C111.659 44.493 114.204 48.4263 118.223 52.3717C120.817 54.9175 122.68 56.7756 125.53 57.8012C132.885 60.4435 139.486 56.5705 140.436 55.9914C143.298 54.085 151.566 49.1141 163.099 49.5002C168.311 49.6691 177.932 51.0686 186.371 58.4044C193.678 64.763 196.382 72.3401 197.319 75.5857C198.659 74.1982 206.66 66.1626 218.351 66.8382C220.701 66.971 226.937 67.4294 232.307 72.2556C239.297 78.5538 239.334 87.3495 239.309 88.8457C240.454 87.4219 243.28 84.3332 247.907 83.1025C253.558 81.5943 261.376 83.0783 265.139 89.0628C267.806 93.2978 267.356 99.9942 263.885 103.264C263.593 103.541 263.276 103.783 262.935 104.012C263.3 103.879 263.666 103.686 264.043 103.469C265.651 102.552 270.278 99.8856 271.569 94.5526C272.958 88.8215 269.462 84.0798 268.525 82.8129Z" fill="white"/>
<path d="M76.4615 112.987C86.0456 112.673 94.9478 106.17 99.4293 96.3488C107.455 102.587 113.142 103.057 116.795 102.394C125.965 100.741 126.672 91.2089 138.655 87.2514C147.703 84.2592 156.679 86.1294 156.679 86.1294C163.413 87.5289 167.505 90.678 172.072 88.7596C174.982 87.541 176.614 84.8625 177.503 82.9561C175.615 82.7148 174.252 82.196 173.399 81.7978C169.49 79.988 166.689 76.5735 164.887 73.714C161.416 70.4563 155.083 65.4853 145.864 62.7947C130.666 58.3667 117.855 63.1205 113.848 64.8097C109.184 66.7763 105.665 69.1532 103.339 70.9389C103.375 69.3825 103.339 67.1986 102.924 64.6287C102.669 63.0481 101.402 55.109 96.5431 49.4262C90.0157 41.7887 77.7889 39.1584 67.7785 42.2955C56.5016 45.8186 51.5451 55.4468 49.9132 58.608C43.5076 71.0596 44.8228 86.5275 52.5437 97.7846C55.4056 101.947 63.2726 113.434 76.4615 112.987Z" fill="#E9F4F6"/>
<path d="M61.7564 108.115C61.7929 108.079 61.8417 108.031 61.8782 107.995C54.6444 101.455 49.2008 91.0186 51.332 84.4912C51.6364 83.5501 52.6228 80.5457 55.2655 79.303C58.0299 77.9999 59.9175 79.8822 62.962 79.8942C70.6342 79.9184 72.1565 68.0459 81.6067 66.1154C86.5997 65.0899 90.8377 67.4667 91.8972 68.0579C98.4125 71.7017 100.008 78.6394 100.288 79.9183C102.894 77.4932 107.339 73.97 113.708 71.4966C124.169 67.4305 133.668 68.6854 138.393 69.6386C147.052 71.3881 154.212 75.8161 157.269 77.9034C164.04 82.5365 167.962 87.4593 172.76 86.3613C174.976 85.8545 176.523 84.2619 177.509 82.9588C175.622 82.7175 174.258 82.1987 173.405 81.8005C169.496 79.9907 166.695 76.5762 164.893 73.7167C158.816 64.3297 144.933 60.9273 143.398 60.5533C132.767 57.9471 123.487 61.2168 118.019 63.1473C111.48 65.4518 106.56 68.5768 103.332 70.9416C103.369 69.3852 103.332 67.2013 102.918 64.6314C102.663 63.0508 101.396 55.1117 96.537 49.4289C90.241 42.0569 78.1481 39.0526 67.7724 42.2982C56.4955 45.8213 51.539 55.4495 49.9071 58.6107C40.1647 77.5294 52.0261 96.9789 52.5376 97.7873C54.0599 100.237 56.9948 104.23 61.7564 108.115Z" fill="white"/>
<path d="M185.733 107.15C185.684 106.486 185.611 104.278 187.121 102.348C188.985 99.971 191.883 99.7779 192.906 99.7176C196.194 99.5125 198.569 101.165 199.263 101.696C199.239 100.828 199.202 97.0873 202.039 93.902C204.609 91.0184 207.861 90.4513 209.054 90.2583C209.87 90.1255 215.983 89.2448 219.308 93.2022C221.208 95.4585 221.463 98.4266 221.524 99.0781C221.622 100.224 221.537 101.202 221.427 101.877C221.658 101.527 223.582 98.7041 227.138 98.4387C230.561 98.1732 232.801 100.466 233.337 101.021C236.54 104.302 235.712 108.875 235.614 109.37C238.001 108.646 240.571 109.382 242.118 111.216C243.859 113.279 243.969 116.368 242.312 118.672C241.837 119.083 241.131 119.674 240.206 120.313C239.706 120.663 234.445 124.283 227.833 125.103C218.029 126.322 215.204 120.193 205.023 122.135C202.356 122.642 203.087 122.968 199.969 123.619C197.996 124.03 186.257 126.503 178.341 119.963C176.673 118.588 173.506 115.909 173.823 112.217C174.054 109.563 176.064 106.728 179.193 105.871C182.615 104.93 185.38 106.897 185.733 107.15Z" fill="white"/>
<path d="M205.292 112.638C199.97 113.905 196.487 117.066 194.831 118.815C194.575 118.357 192.067 113.965 187.354 113.615C184.321 113.386 180.388 114.822 179.925 117.247C179.45 119.72 182.787 122.182 183.505 122.713C188.596 126.465 193.15 124.366 205.657 124.969C213.122 125.331 214.937 126.248 221.026 125.62C229.819 124.703 231.925 122.182 232.693 120.722C232.827 120.456 233.667 118.816 233.289 116.801C232.595 113.012 228.26 111.504 227.797 111.347C227.212 111.154 223.023 109.754 220.368 112.288C219.077 113.519 218.749 115.099 218.651 115.872C217.86 115.003 216.508 113.748 214.523 112.903C210.845 111.323 207.423 112.131 205.292 112.638Z" fill="#E9F4F6"/>
</svg>
