<svg width="301" height="148" viewBox="0 0 301 148" fill="none" xmlns="http://www.w3.org/2000/svg">
<path d="M9.38184 114.173C15.0848 121.582 26.41 124.248 37.0627 120.13C38.3001 122.395 40.2773 125.62 43.2633 129.005C60.4932 148.461 92.2763 151.539 115.841 144.503C121.786 142.731 130.543 139.319 140.012 132.31C143.401 134.042 147.826 135.895 153.18 137.187C161.452 139.186 168.607 139.04 173.516 138.533C184.815 142.877 194.889 145.09 202.905 146.262C211.554 147.528 249.968 152.259 281.2 131.324C291.799 124.221 294.758 118.731 295.78 114.093C297.932 104.352 292.7 93.1181 287.723 89.9199C286.015 88.8138 282.128 86.4418 277.945 81.911C277.286 81.1914 276.667 80.3385 275.995 79.1525C269.875 68.2118 281.563 59.5632 278.644 46.024C275.215 30.0727 252.658 13.9083 235.657 16.9466C227.116 18.4791 224.547 24.0494 216.558 22.93C206.429 21.5041 205.582 11.8295 196.248 10.2836C185.191 8.45798 171.311 19.5319 169.293 30.4592C168.23 36.2294 170.356 42.6392 169.508 42.8257C168.863 42.959 168.459 39.2411 165.581 36.5625C161.828 33.0578 155.009 32.4048 149.629 34.7902C144.41 37.1089 140.173 42.4793 140.348 47.783C140.536 53.9796 146.696 58.2706 146.158 58.8036C145.607 59.35 140.254 53.6065 132.775 49.8219C122.136 44.4382 110.663 47.6364 109.035 48.1162C96.0021 51.9407 88.3219 63.4677 87.4611 64.787C84.6769 69.078 84.3944 71.4767 81.5295 72.5561C76.7143 74.3817 73.3248 69.1846 62.6856 66.7459C58.2201 65.7198 53.1627 64.5605 47.675 66.666C39.8469 69.6643 36.4977 76.9937 36.2287 77.62C33.7135 83.3768 35.8252 86.5084 33.2697 88.2941C29.8667 90.6661 25.4819 85.4024 17.062 86.8416C15.4076 87.1214 11.5742 87.6811 8.80347 90.3596C3.35605 95.6501 4.01514 107.19 9.38184 114.173Z" fill="#E9F4F6"/>
<path d="M50.4075 97.2073C55.8146 94.3422 65.1626 89.3983 76.3264 87.7725C95.009 85.0673 99.9184 94.4355 115.225 90.9574C128.352 87.9857 129.16 80.11 141.615 75.246C150.815 71.6613 165.328 70.1155 187.951 80.6297C190.722 77.7913 196.021 73.1938 203.93 70.8618C217.529 66.864 234.947 70.7285 241.941 81.2294C249.177 92.0901 240.784 103.351 249.487 111.506C254.948 116.61 263.112 116.757 264.672 116.783C276.092 116.983 282.561 109.134 285.722 111.506C288.372 113.505 287.027 121.501 283.543 127.564C270.658 150.058 226.406 149.725 202.908 146.247C189.982 144.328 179.787 140.93 173.519 138.518C168.609 139.024 161.454 139.158 153.182 137.172C147.829 135.879 143.403 134.027 140.014 132.295C130.545 139.304 121.789 142.716 115.844 144.488C92.2785 151.511 60.4953 148.433 43.2654 128.99C40.2659 125.605 38.2887 122.38 37.0647 120.115C33.6618 121.394 28.4565 122.687 22.4441 121.661C19.5927 121.168 10.8499 119.688 9.38382 114.158C8.6037 111.24 9.90839 107.388 12.3967 106.242C15.2079 104.95 17.8576 107.921 21.7178 109.147C30.0571 111.786 37.3337 104.137 50.4075 97.2073Z" fill="#CEEAF0"/>
<path d="M4.35504 91.4647C5.09479 90.4519 8.14804 86.5341 13.7165 84.8283C18.6931 83.2959 22.9031 84.3886 25.8622 85.1482C29.1172 85.9877 31.6055 87.2404 33.233 88.1865C32.8564 85.4147 32.1435 77.3391 37.2816 70.6362C46.1319 59.1225 63.7115 62.8804 65.4332 63.2802C73.6514 65.1725 79.0584 69.9299 81.5198 72.4352C82.1655 69.9699 86.4965 54.5517 101.816 47.0625C105.502 45.2634 115.348 41.2257 127.022 44.184C132.214 45.5033 136.088 47.7954 138.469 49.4612C138.28 41.3589 143.149 34.2295 150.211 31.8708C158.483 29.099 165.638 34.2429 166.298 34.7226C166.244 33.8697 165.504 15.3599 180.797 5.24549C193.723 -3.28315 207.684 1.04779 209.016 1.48755C218.862 4.73909 224.148 11.7752 225.829 14.2405C227.793 13.481 248.735 5.73852 267.74 18.2916C282.589 28.0996 289.57 45.8898 287.136 61.3746C286.046 68.3574 283.222 73.6745 281.164 76.8994C283.625 78.0055 287.297 79.9777 290.888 83.4158C292.704 85.1482 296.914 89.2526 299.16 95.9689C300.062 98.6741 302.913 107.109 298.663 115.731C294.48 124.233 285.683 128.231 285.185 127.671C284.957 127.418 286.369 126.192 287.943 123.847C288.804 122.554 292.785 116.304 292.368 108.122C291.857 98.1544 285.145 91.7845 283.289 90.1454C277.828 85.3214 271.87 83.9755 269.233 83.5491C270 79.7245 271.856 67.9576 265.467 55.5245C264.647 53.912 256.442 38.5471 238.62 33.7764C230.886 31.7109 224.148 32.3772 220.691 32.9502C209.527 34.8159 205.586 40.7859 192.203 44.1974C186.769 45.5833 182.182 45.9564 179.304 46.063C177.609 49.1413 174.798 53.4856 170.36 57.8432C167.495 60.655 165.437 62.7072 162.289 63.8399C154.165 66.7583 146.875 62.4806 145.826 61.841C142.665 59.7355 133.532 54.2452 120.795 54.6716C115.038 54.8582 104.412 56.404 95.0913 64.5062C87.021 71.529 84.035 79.8978 82.9994 83.4824C81.5198 81.95 72.6829 73.0748 59.7706 73.8211C57.1747 73.9677 50.2881 74.4741 44.3564 79.8045C36.6359 86.7606 36.5956 96.4753 36.6225 98.1277C35.3582 96.5552 32.2377 93.1438 27.1265 91.7845C20.8856 90.1188 12.2504 91.7579 8.09424 98.3676C5.14859 103.045 5.64627 110.441 9.47961 114.052C9.80243 114.359 10.1522 114.625 10.5288 114.879C10.1252 114.732 9.72174 114.519 9.30478 114.279C7.52933 113.266 2.41818 110.321 0.992432 104.431C-0.540894 98.1011 3.31934 92.8639 4.35504 91.4647Z" fill="white"/>
<path d="M216.483 124.791C205.897 124.445 196.065 117.262 191.115 106.415C182.251 113.304 175.97 113.824 171.935 113.091C161.807 111.265 161.027 100.738 147.792 96.3667C137.798 93.0619 127.885 95.1274 127.885 95.1274C120.447 96.6732 115.928 100.151 110.884 98.0325C107.669 96.6865 105.867 93.7282 104.885 91.6227C106.97 91.3561 108.476 90.7831 109.418 90.3434C113.735 88.3445 116.829 84.5732 118.819 81.4149C122.653 77.8169 129.647 72.3266 139.829 69.3549C156.615 64.4642 170.765 69.7147 175.19 71.5804C180.342 73.7525 184.229 76.3777 186.798 78.35C186.757 76.6309 186.798 74.2189 187.255 71.3804C187.537 69.6347 188.936 60.8662 194.303 54.5897C201.512 46.1543 215.017 43.2492 226.073 46.714C238.528 50.6052 244.002 61.2394 245.805 64.7308C252.879 78.4832 251.427 95.5672 242.899 108C239.738 112.598 231.049 125.284 216.483 124.791Z" fill="#E9F4F6"/>
<path d="M232.727 119.411C232.686 119.371 232.633 119.318 232.592 119.278C240.582 112.055 246.594 100.528 244.24 93.3191C243.904 92.2797 242.814 88.9615 239.896 87.5889C236.843 86.1497 234.758 88.2286 231.395 88.2419C222.921 88.2686 221.24 75.1558 210.803 73.0236C205.288 71.8909 200.607 74.5161 199.437 75.1691C192.241 79.1935 190.479 86.856 190.17 88.2686C187.291 85.59 182.382 81.6988 175.347 78.967C163.794 74.4761 153.302 75.8621 148.083 76.9148C138.52 78.8471 130.611 83.7377 127.235 86.0431C119.757 91.1603 115.426 96.5973 110.126 95.3846C107.679 94.825 105.97 93.0659 104.881 91.6267C106.966 91.3602 108.472 90.7872 109.414 90.3474C113.731 88.3485 116.825 84.5772 118.815 81.419C125.527 71.0513 140.861 67.2934 142.555 66.8803C154.298 64.0019 164.547 67.6133 170.586 69.7454C177.809 72.2907 183.243 75.7421 186.807 78.354C186.767 76.635 186.807 74.2229 187.264 71.3845C187.547 69.6388 188.946 60.8703 194.312 54.5938C201.266 46.4516 214.623 43.1334 226.082 46.7181C238.537 50.6093 244.012 61.2434 245.814 64.7348C256.574 85.63 243.474 107.112 242.909 108.004C241.227 110.71 237.986 115.12 232.727 119.411Z" fill="white"/>
<path d="M95.7977 118.344C95.8515 117.611 95.9322 115.173 94.2644 113.04C92.2065 110.415 89.0053 110.202 87.8754 110.135C84.2438 109.909 81.621 111.734 80.8544 112.321C80.8813 111.361 80.9216 107.23 77.7877 103.712C74.9496 100.527 71.3584 99.9009 70.0403 99.6877C69.1391 99.5411 62.387 98.5683 58.715 102.939C56.6168 105.431 56.3343 108.709 56.2671 109.429C56.1595 110.695 56.2536 111.774 56.3747 112.521C56.1191 112.134 53.994 109.016 50.0665 108.723C46.2869 108.43 43.812 110.961 43.2202 111.574C39.6828 115.199 40.5974 120.25 40.705 120.796C38.0687 119.997 35.2307 120.809 33.5225 122.835C31.5991 125.114 31.478 128.525 33.3073 131.07C33.8319 131.524 34.612 132.177 35.6342 132.883C36.1857 133.269 41.9962 137.267 49.2998 138.173C60.1273 139.519 63.2478 132.75 74.4923 134.895C77.438 135.455 76.6309 135.815 80.0742 136.534C82.2532 136.987 95.2193 139.719 103.962 132.496C105.805 130.977 109.302 128.019 108.952 123.941C108.697 121.009 106.477 117.878 103.021 116.932C99.241 115.892 96.1878 118.064 95.7977 118.344Z" fill="white"/>
<path d="M74.1937 124.406C80.0715 125.806 83.9184 129.297 85.7476 131.229C86.0301 130.723 88.8008 125.872 94.0061 125.486C97.3553 125.233 101.7 126.818 102.211 129.497C102.735 132.229 99.05 134.947 98.2564 135.534C92.6342 139.678 87.6038 137.359 73.7902 138.026C65.5452 138.425 63.541 139.438 56.8159 138.745C47.1047 137.732 44.7778 134.947 43.9304 133.335C43.7825 133.042 42.8544 131.229 43.2714 129.004C44.038 124.82 48.8264 123.154 49.3375 122.981C49.9831 122.767 54.61 121.222 57.5422 124.02C58.9679 125.379 59.3311 127.125 59.4387 127.978C60.313 127.018 61.806 125.632 63.9984 124.7C68.0604 122.954 71.8399 123.847 74.1937 124.406Z" fill="#E9F4F6"/>
</svg>
