<svg width="205" height="101" viewBox="0 0 205 101" fill="none" xmlns="http://www.w3.org/2000/svg">
<path d="M5.96304 77.9161C9.85492 82.9724 17.5836 84.7912 24.8533 81.9811C25.6978 83.5271 27.0471 85.7279 29.0849 88.0378C40.8431 101.315 62.533 103.416 78.6145 98.6143C82.6716 97.4048 88.6471 95.0767 95.1091 90.2932C97.4222 91.4754 100.442 92.7395 104.095 93.6216C109.74 94.9857 114.624 94.8857 117.974 94.5401C125.684 97.5048 132.559 99.0144 138.03 99.8147C143.932 100.679 170.147 103.907 191.461 89.6202C198.694 84.773 200.713 81.0263 201.411 77.8615C202.879 71.2137 199.309 63.5474 195.912 61.3648C194.747 60.61 192.094 58.9912 189.239 55.8992C188.79 55.4082 188.367 54.8261 187.908 54.0168C183.732 46.5505 191.709 40.6484 189.717 31.4088C187.376 20.5231 171.983 9.492 160.381 11.5655C154.552 12.6113 152.799 16.4126 147.347 15.6487C140.435 14.6756 139.857 8.07331 133.486 7.0184C125.941 5.7725 116.469 13.3297 115.092 20.7869C114.367 24.7246 115.817 29.0989 115.239 29.2262C114.798 29.3171 114.523 26.7799 112.558 24.952C109.997 22.5602 105.344 22.1146 101.672 23.7425C98.1107 25.3248 95.2193 28.9898 95.3386 32.6092C95.4671 36.838 99.6711 39.7663 99.3039 40.13C98.9276 40.5029 95.2744 36.5833 90.1709 34.0006C82.9103 30.3266 75.0806 32.5092 73.97 32.8366C65.0756 35.4466 59.8344 43.313 59.2469 44.2133C57.3469 47.1416 57.1541 48.7785 55.199 49.5152C51.9129 50.7611 49.5998 47.2144 42.3393 45.5501C39.2919 44.8499 35.8406 44.0587 32.0956 45.4956C26.7534 47.5418 24.4678 52.5435 24.2842 52.9709C22.5678 56.8996 24.0089 59.0367 22.2649 60.2553C19.9426 61.8741 16.9503 58.2819 11.2042 59.264C10.0752 59.455 7.45921 59.837 5.56834 61.6649C1.85086 65.2753 2.30064 73.1508 5.96304 77.9161Z" fill="#E9F4F6"/>
<path d="M33.9772 66.3374C37.6671 64.3821 44.0465 61.0082 51.6651 59.8987C64.4147 58.0526 67.765 64.4458 78.2107 62.0722C87.1694 60.0442 87.7201 54.6696 96.2199 51.3503C102.498 48.904 112.402 47.849 127.841 55.0243C129.732 53.0872 133.349 49.9498 138.746 48.3583C148.026 45.6301 159.913 48.2674 164.686 55.4335C169.624 62.8452 163.897 70.5298 169.835 76.0954C173.562 79.5784 179.134 79.6784 180.198 79.6966C187.991 79.833 192.406 74.4766 194.564 76.0954C196.372 77.4595 195.454 82.9159 193.077 87.0537C184.283 102.405 154.084 102.177 138.048 99.8037C129.227 98.4942 122.27 96.1751 117.992 94.5291C114.642 94.8747 109.759 94.9656 104.114 93.6106C100.461 92.7285 97.4407 91.4644 95.1276 90.2822C88.6656 95.0657 82.69 97.3938 78.6329 98.6033C62.5513 103.396 40.8614 101.295 29.1031 88.0268C27.0562 85.7169 25.7069 83.5161 24.8716 81.9701C22.5493 82.8432 18.9971 83.7253 14.894 83.0251C12.9481 82.6886 6.98177 81.6791 5.98126 77.9051C5.44888 75.9135 6.33925 73.2853 8.03735 72.5032C9.95576 71.621 11.764 73.649 14.3984 74.4857C20.0894 76.2863 25.0552 71.0663 33.9772 66.3374Z" fill="#CEEAF0"/>
<path d="M2.53867 62.4185C3.0435 61.7274 5.12714 59.0537 8.92723 57.8897C12.3235 56.8438 15.1965 57.5896 17.2159 58.1079C19.4372 58.6809 21.1353 59.5357 22.2459 60.1814C21.9889 58.2898 21.5024 52.7788 25.0088 48.2044C31.0486 40.3471 43.0455 42.9117 44.2204 43.1845C49.8288 44.4759 53.5187 47.7225 55.1985 49.4321C55.6391 47.7497 58.5947 37.2279 69.0495 32.117C71.5646 30.8893 78.2836 28.1337 86.2509 30.1526C89.794 31.053 92.4376 32.6172 94.0622 33.7539C93.9337 28.2247 97.2565 23.3594 102.075 21.7497C107.721 19.8581 112.604 23.3685 113.054 23.6958C113.017 23.1138 112.512 10.4821 122.948 3.57969C131.769 -2.24053 141.297 0.715045 142.206 1.01515C148.925 3.23411 152.532 8.0358 153.68 9.71821C155.02 9.19985 169.311 3.91616 182.281 12.4828C192.415 19.1761 197.179 31.3167 195.517 41.8841C194.774 46.6494 192.846 50.2779 191.442 52.4787C193.122 53.2335 195.628 54.5794 198.078 56.9257C199.318 58.1079 202.191 60.9089 203.723 65.4923C204.338 67.3384 206.284 73.095 203.384 78.9789C200.529 84.7809 194.526 87.5092 194.187 87.1272C194.03 86.9544 194.994 86.1178 196.068 84.5172C196.656 83.6351 199.373 79.3699 199.088 73.7862C198.739 66.9838 194.159 62.6368 192.892 61.5182C189.166 58.2262 185.099 57.3076 183.3 57.0166C183.823 54.4066 185.09 46.3765 180.73 37.8917C180.17 36.7913 174.571 26.3058 162.409 23.0501C157.131 21.6406 152.532 22.0953 150.173 22.4863C142.555 23.7595 139.865 27.8337 130.732 30.1617C127.024 31.1075 123.894 31.3622 121.93 31.4349C120.773 33.5356 118.855 36.5003 115.826 39.4741C113.87 41.3929 112.466 42.7934 110.318 43.5664C104.774 45.558 99.7991 42.6388 99.0831 42.2023C96.9261 40.7655 90.6936 37.0187 82.0011 37.3097C78.0725 37.437 70.8211 38.4919 64.46 44.0211C58.9527 48.8137 56.9149 54.5249 56.2081 56.9712C55.1985 55.9253 49.1679 49.8687 40.356 50.3779C38.5845 50.478 33.8849 50.8235 29.8369 54.4612C24.5682 59.2083 24.5407 65.8379 24.559 66.9656C23.6962 65.8925 21.5667 63.5644 18.0787 62.6368C13.8196 61.5 7.92673 62.6186 5.09042 67.1293C3.08022 70.3213 3.41985 75.3685 6.03584 77.833C6.25615 78.0422 6.49481 78.2241 6.75182 78.3969C6.47646 78.2968 6.20108 78.1513 5.91653 77.9876C4.70491 77.2965 1.21689 75.2867 0.243912 71.2671C-0.80249 66.9474 1.83188 63.3734 2.53867 62.4185Z" fill="white"/>
<path d="M147.313 85.1616C140.089 84.9252 133.379 80.0234 130.002 72.6208C123.953 77.3225 119.666 77.6772 116.912 77.177C110.001 75.9311 109.468 68.7467 100.436 65.7639C93.6161 63.5085 86.8512 64.9181 86.8512 64.9181C81.7752 65.9731 78.691 68.3466 75.2489 66.9006C73.0551 65.9821 71.8252 63.9633 71.1551 62.5264C72.5778 62.3445 73.6059 61.9535 74.2484 61.6534C77.1949 60.2892 79.306 57.7156 80.6645 55.5603C83.2805 53.1049 88.0536 49.3581 95.0021 47.3301C106.457 43.9926 116.114 47.5757 119.134 48.8489C122.649 50.3312 125.302 52.1227 127.055 53.4687C127.028 52.2955 127.055 50.6495 127.367 48.7124C127.56 47.5211 128.515 41.5372 132.177 37.2539C137.097 31.4973 146.313 29.5148 153.858 31.8793C162.357 34.5347 166.093 41.7918 167.323 44.1745C172.151 53.5596 171.16 65.2182 165.341 73.703C163.184 76.8405 157.254 85.4981 147.313 85.1616Z" fill="#E9F4F6"/>
<path d="M158.382 81.4899C158.354 81.4626 158.318 81.4262 158.29 81.399C163.743 76.4699 167.846 68.6036 166.239 63.6836C166.01 62.9743 165.266 60.7099 163.274 59.7732C161.191 58.791 159.768 60.2097 157.473 60.2188C151.691 60.237 150.543 51.2884 143.42 49.8333C139.657 49.0603 136.463 50.8518 135.664 51.2974C130.753 54.0439 129.551 59.273 129.34 60.237C127.375 58.4091 124.025 55.7536 119.225 53.8893C111.34 50.8246 104.18 51.7704 100.619 52.4888C94.0925 53.8074 88.6952 57.145 86.3913 58.7182C81.2878 62.2104 78.3321 65.9208 74.7156 65.0932C73.045 64.7113 71.8793 63.5108 71.1358 62.5287C72.5586 62.3468 73.5866 61.9558 74.2291 61.6557C77.1756 60.2915 79.2868 57.7179 80.6452 55.5626C85.2256 48.4874 95.6896 45.9229 96.8461 45.6409C104.859 43.6766 111.854 46.1411 115.975 47.5962C120.904 49.3331 124.613 51.6885 127.045 53.471C127.017 52.2978 127.045 50.6518 127.357 48.7147C127.55 47.5234 128.504 41.5395 132.167 37.2562C136.912 31.6997 146.027 29.4352 153.848 31.8815C162.347 34.537 166.083 41.7941 167.313 44.1768C174.656 58.4363 165.716 73.096 165.331 73.7053C164.183 75.5515 161.971 78.5616 158.382 81.4899Z" fill="white"/>
<path d="M64.936 80.7623C64.9727 80.2621 65.0278 78.5979 63.8896 77.1428C62.4852 75.3513 60.3006 75.2058 59.5296 75.1603C57.0513 75.0057 55.2614 76.2516 54.7382 76.6517C54.7565 75.997 54.7841 73.1778 52.6454 70.7769C50.7086 68.6034 48.2578 68.176 47.3583 68.0305C46.7433 67.9305 42.1354 67.2666 39.6296 70.2495C38.1977 71.9501 38.0049 74.1872 37.959 74.6783C37.8856 75.5423 37.9498 76.2789 38.0325 76.7882C37.8581 76.5244 36.4078 74.3964 33.7275 74.1963C31.1482 73.9963 29.4593 75.7241 29.0554 76.1425C26.6413 78.6161 27.2655 82.0627 27.3389 82.4356C25.5399 81.89 23.6031 82.4447 22.4374 83.827C21.1248 85.3821 21.0422 87.7102 22.2905 89.4472C22.6485 89.7564 23.1809 90.202 23.8785 90.684C24.2548 90.9477 28.2201 93.6759 33.2043 94.2943C40.5934 95.2128 42.7229 90.593 50.3965 92.0572C52.4067 92.4391 51.856 92.6847 54.2058 93.1758C55.6928 93.485 64.5413 95.3492 70.5076 90.4202C71.7652 89.3835 74.1517 87.3646 73.913 84.5818C73.7386 82.5811 72.2241 80.444 69.8651 79.7983C67.2858 79.089 65.2022 80.5713 64.936 80.7623Z" fill="white"/>
<path d="M50.2049 84.8987C54.2161 85.8536 56.8413 88.2362 58.0896 89.5549C58.2824 89.2093 60.1732 85.8991 63.7255 85.6353C66.011 85.4625 68.9758 86.5448 69.3246 88.3727C69.6826 90.237 67.1676 92.0922 66.626 92.4923C62.7892 95.3206 59.3563 93.7382 49.9295 94.1929C44.3028 94.4657 42.9351 95.1569 38.3456 94.684C31.7184 93.9928 30.1305 92.0922 29.5522 90.9918C29.4512 90.7917 28.8179 89.5549 29.1024 88.0362C29.6256 85.1806 32.8933 84.0439 33.2421 83.9256C33.6827 83.7801 36.8403 82.7252 38.8413 84.635C39.8143 85.5626 40.0621 86.7539 40.1355 87.3359C40.7322 86.6812 41.751 85.7354 43.2472 85.0988C46.0193 83.9075 48.5985 84.5168 50.2049 84.8987Z" fill="#E9F4F6"/>
</svg>
