<svg width="230" height="148" viewBox="0 0 230 148" fill="none" xmlns="http://www.w3.org/2000/svg">
<path d="M41.6789 130.006C42.8582 130.165 44.3789 133.932 44.3789 133.932C44.3789 133.932 48.4057 134.455 48.8596 135.557C49.3096 136.659 46.8074 139.859 46.8074 139.859C46.8074 139.859 48.3669 143.611 47.6376 144.553C46.9082 145.496 42.8853 144.93 42.8853 144.93C42.8853 144.93 40.4181 148.153 39.2349 147.994C38.0555 147.835 36.5348 144.068 36.5348 144.068C36.5348 144.068 32.508 143.545 32.0542 142.443C31.6042 141.341 34.1063 138.141 34.1063 138.141C34.1063 138.141 32.5468 134.389 33.2761 133.447C34.0055 132.504 38.0284 133.07 38.0284 133.07C38.0284 133.07 40.4995 129.847 41.6789 130.006Z" fill="#F39600"/>
<path d="M19.4993 90.7188C19.4993 83.7895 18.0084 75.3095 20.1791 68.6235C23.7904 57.5002 39.0815 40.3096 50.9622 35.6588C75.2469 26.1524 88.7627 48.5718 90.7764 66.8416C91.3463 72.0121 93.4316 83.7304 89.2227 87.8678C86.5302 90.5146 75.7927 89.7188 73.1028 87.6896C65.7212 82.1211 66.1265 65.9918 66.985 58.3777C69.0976 39.6415 82.1582 19.6958 99.1277 9.10877C122.045 -5.18866 150.544 3.17339 163.219 24.4329C178.191 49.545 175.557 79.8561 184.971 106.399C190.202 121.149 195.51 126 210.996 126C219.923 126 225.504 123.101 231 116.378" stroke="#7654A3" stroke-opacity="0.2" stroke-width="3" stroke-linecap="round" stroke-dasharray="6 6"/>
<path d="M39.5023 108.621C39.9153 107.343 39.3386 105.995 37.7955 104.592C35.3951 102.425 30.9062 100.345 28.6617 99.3782C29.3163 98.2637 30.2905 96.5258 31.1556 94.671C33.3689 89.9404 33.6806 87.088 32.1297 85.693C32.0596 85.6306 31.9816 85.5683 31.9037 85.5137C30.119 84.2278 27.4693 85.3423 23.557 89.013C22.0217 90.4547 20.6345 91.9822 19.7616 92.972C18.8108 91.9043 17.2521 90.2209 15.5609 88.6934C13.2151 86.5736 9.83279 83.9472 7.5727 85.5994C5.79581 86.9009 6.03738 89.7611 8.32864 94.6164C9.22488 96.518 10.2458 98.3105 10.9239 99.4483C9.70809 99.9783 7.84546 100.843 5.99842 101.864C1.31458 104.475 -0.548056 106.665 0.137764 108.761C0.285839 109.206 0.535253 109.588 0.893749 109.915C1.75102 110.686 3.59025 111.614 9.69249 110.733C11.5084 110.468 13.2073 110.118 14.3374 109.86C14.4387 110.928 14.6257 112.479 14.9063 114.131C15.6311 118.379 16.6208 121.02 17.9379 122.213C18.5068 122.727 19.1771 123 19.8629 123C22.0606 122.992 23.5492 120.529 24.5545 115.261C24.9442 113.188 25.178 111.146 25.2949 109.829C26.5886 110.11 28.6071 110.515 30.6957 110.764C36.0342 111.396 38.832 110.718 39.5023 108.621Z" fill="#FFF929"/>
</svg>
