<svg width="112" height="69" viewBox="0 0 112 69" fill="none" xmlns="http://www.w3.org/2000/svg">
<g clip-path="url(#clip0_390_2866)">
<path d="M110.702 62.2435C109.852 61.8841 109.001 61.5247 108.151 61.1653C107.809 61.0215 106.084 60.5303 105.677 60.2488C105.659 60.1829 105.629 60.123 105.587 60.0751C105.407 59.8834 105.293 59.8235 105.042 59.7516C104.395 59.5659 103.766 60.2008 103.952 60.8418C104.245 61.8721 105.144 62.1476 106.054 62.5909C106.467 62.7886 106.881 62.9862 107.3 63.1839C96.9372 63.9986 86.5683 64.6335 76.1874 65.1008C77.9066 51.3115 78.0623 36.9652 77.5172 22.9784C81.9379 17.9347 85.6039 12.31 88.0059 6.08028C88.3773 5.10989 86.7779 4.43301 86.3227 5.36746C83.8308 10.507 80.8178 15.1972 77.3735 19.4921C77.3256 18.4978 77.2776 17.5094 77.2237 16.521C77.1878 15.8501 76.1755 15.8382 76.1695 16.521C76.1635 18.0006 76.1575 19.4801 76.1575 20.9597C71.8027 26.1112 66.795 30.6756 61.2601 34.719C61.2661 33.3113 61.2661 31.9036 61.2541 30.5019C61.2481 29.7711 60.1579 29.7771 60.128 30.5019C60.0501 32.2331 59.9662 33.9702 59.8764 35.7013C58.0015 37.0251 56.0727 38.295 54.084 39.505C51.4902 41.0864 48.8306 42.56 46.1231 43.9317C46.183 43.0452 46.2429 42.1587 46.3028 41.2721C46.3447 40.6192 45.2605 40.4575 45.1467 41.1164C44.9371 42.2964 44.7514 43.4945 44.5836 44.6925C40.3307 46.7651 35.9579 48.592 31.4893 50.1495C31.4533 50.1375 31.4114 50.1315 31.3755 50.1315C31.3335 49.0413 31.2856 47.9571 31.2137 46.8729C31.1598 46.0642 29.9498 46.0462 29.9378 46.8729C29.9199 48.1428 29.9199 49.4187 29.9079 50.6886C26.6493 51.7788 23.3487 52.7312 20.0122 53.5518C20.0242 52.5096 20.0182 51.4793 19.9643 50.4669C19.9404 49.9638 19.1377 49.7901 19.0359 50.3411C18.8142 51.5092 18.6405 52.7072 18.4967 53.9232C14.5912 54.8277 10.3682 55.2171 6.52852 56.3852C6.5405 48.9514 6.18708 41.4638 6.07327 34.084C5.91154 24.6616 6.03134 15.1014 5.31253 5.66697C5.85163 6.6733 6.44466 7.6437 7.12154 8.46434C7.78644 9.26702 9.14619 8.40444 8.84669 7.45801C8.46931 6.254 7.73253 5.16979 7.12154 4.06761C6.46263 2.88157 5.82168 1.67756 5.13282 0.509489C4.6596 -0.281205 3.43762 -0.113482 3.18604 0.761073C2.55109 2.99538 1.43693 4.78043 0.125095 6.66132C-0.354113 7.34419 0.658214 8.01509 1.22727 7.51192C2.08985 6.74518 2.82064 5.84068 3.44361 4.87028C3.17406 14.5922 3.73114 24.386 3.88688 34.102C4.06059 44.5727 3.59936 55.2051 4.3002 65.6518C4.32416 66.0172 4.49787 66.2688 4.72549 66.4246C4.65361 66.8259 4.89322 67.2991 5.43832 67.359C13.8844 68.3354 22.5221 68.1617 31.0161 68.2096C39.546 68.2575 48.0699 68.1857 56.5998 67.988C73.1924 67.6106 89.773 66.76 106.318 65.4781C105.593 66.1311 104.898 66.736 104.551 67.6885C104.275 68.4432 105.114 69.168 105.826 68.9644C106.947 68.6409 107.659 67.7544 108.486 66.9637C109.421 66.0711 110.397 65.1846 111.224 64.1962C111.829 63.4714 111.541 62.5969 110.702 62.2435ZM17.9636 65.6339C17.9636 65.6698 17.9756 65.6998 17.9876 65.7297C14.0641 65.6578 10.1465 65.6339 6.235 65.8016C6.24698 65.7537 6.25297 65.7057 6.25896 65.6459C6.4147 62.9862 6.49258 60.3087 6.51055 57.6251C10.3382 57.8168 14.5553 56.8284 18.2631 56.0138C17.9936 59.2424 17.9277 62.531 17.9636 65.6339ZM29.848 61.1054C29.5904 61.0155 29.3328 61.3509 29.5545 61.5606C29.6503 61.6505 29.7462 61.7343 29.842 61.8182C29.842 63.2019 29.83 64.5856 29.83 65.9693C26.188 65.9274 22.5401 65.8196 18.8921 65.7417C19.3713 62.4951 19.7786 59.0328 19.9344 55.6244C23.2888 54.8517 26.6014 53.9232 29.872 52.851C29.854 55.6064 29.854 58.3559 29.848 61.1054ZM40.6362 48.7418C40.5882 48.9215 40.6182 49.1311 40.756 49.2569C41.2292 49.7002 41.6305 50.1554 41.9899 50.6406C41.0435 50.1375 40.0731 49.7421 39.0188 49.4247C39.5639 49.203 40.103 48.9754 40.6362 48.7418ZM37.5333 50.0536C38.1682 50.6586 38.8032 51.2636 39.4322 51.8746C38.5756 51.3415 37.707 50.8263 36.8205 50.3352C37.0601 50.2393 37.2997 50.1495 37.5333 50.0536ZM35.886 50.7005C35.898 50.7904 35.9339 50.8802 36.0118 50.9581C37.7489 52.7192 39.4801 54.4863 41.2232 56.2414C38.7074 54.678 36.1975 53.1086 33.6936 51.5272C34.4304 51.2576 35.1612 50.9821 35.886 50.7005ZM36.0537 56.7086C38.5277 58.1702 40.9956 59.6378 43.4395 61.1473C43.4395 61.6564 43.4515 62.1596 43.4575 62.6688C41.0076 60.6621 38.5336 58.6794 36.0537 56.7086ZM38.1623 59.512C35.922 58.1283 33.6876 56.7386 31.4533 55.3489C31.4533 54.9415 31.4473 54.5282 31.4414 54.1209C33.6817 55.9179 35.916 57.7209 38.1623 59.512ZM43.4455 60.0451C40.8099 58.0264 38.2281 55.9539 35.7063 53.8034C38.3 55.4207 40.8877 57.0441 43.4635 58.6913C43.4515 59.1406 43.4515 59.5958 43.4455 60.0451ZM31.669 52.264C31.8846 52.1921 32.0943 52.1082 32.3099 52.0303C34.1728 53.7255 36.0717 55.3788 38.0245 56.9662C35.8261 55.6604 33.6337 54.3365 31.4354 53.0247C31.4294 52.7971 31.4354 52.5695 31.4294 52.3418C31.5073 52.3179 31.5851 52.2879 31.669 52.264ZM31.4473 56.4451C33.9392 58.5835 36.4431 60.722 38.947 62.8545C36.7126 61.5307 34.4783 60.2008 32.238 58.877C31.8726 58.6614 31.4114 59.2065 31.7648 59.488C33.502 60.8657 35.2451 62.2315 36.9822 63.6032C35.1193 62.531 33.2444 61.4887 31.3455 60.4764C31.3994 59.1346 31.4354 57.7928 31.4473 56.4451ZM31.3096 61.3869C31.8726 61.8781 32.4776 62.4232 33.1006 62.9683C32.4956 62.6208 31.8906 62.2674 31.2856 61.92C31.2976 61.7463 31.3036 61.5666 31.3096 61.3869ZM31.6091 65.9933C31.4174 65.9933 31.2257 65.9873 31.04 65.9873C31.052 65.8435 31.058 65.7057 31.07 65.562C31.3156 65.7477 31.5731 65.8914 31.8487 65.9933C31.7648 65.9933 31.687 65.9933 31.6091 65.9933ZM31.1598 64.1723C31.1838 63.8009 31.2137 63.4295 31.2317 63.0581C32.256 63.9387 33.3103 64.7773 34.3885 65.5919C33.3103 65.1187 32.2321 64.6455 31.1598 64.1723ZM35.9639 65.9993C34.9635 65.3104 33.9812 64.6036 33.0287 63.8428C32.7053 63.5853 32.3938 63.3157 32.0763 63.0461C33.5379 63.8848 35.7962 65.1487 37.3176 65.9993C36.8684 65.9993 36.4191 65.9993 35.9639 65.9993ZM38.4977 65.9933C37.4315 65.2445 36.3712 64.4898 35.3289 63.711C35.0534 63.5074 34.7778 63.2678 34.4903 63.0282C35.1373 63.3457 35.7842 63.6452 36.3353 63.9686C37.4614 64.6275 38.5816 65.3044 39.6957 65.9873C39.3004 65.9873 38.899 65.9933 38.4977 65.9933ZM41.1094 65.9813C39.5999 64.7653 38.0904 63.5613 36.5749 62.3513C38.5097 63.4954 40.4505 64.6455 42.3853 65.7896C42.7507 66.0053 43.1939 65.4781 42.8525 65.1846C40.145 62.8724 37.4315 60.5603 34.7179 58.2481C37.6411 60.0571 40.5583 61.8781 43.4695 63.6991C43.4875 64.4598 43.5114 65.2146 43.5414 65.9693C42.7327 65.9753 41.918 65.9753 41.1094 65.9813ZM43.4994 57.2238C42.1217 55.7981 40.732 54.3725 39.3363 52.9588C40.7739 53.8693 42.1816 54.8277 43.5533 55.846C43.5294 56.3073 43.5174 56.7625 43.4994 57.2238ZM43.6132 54.4923C42.3314 53.2523 41.0495 52.0184 39.7676 50.7784C40.9776 51.2456 42.1157 51.8506 43.2179 52.6234C43.4096 52.7611 43.5953 52.7312 43.7331 52.6294C43.6911 53.2583 43.6492 53.8753 43.6132 54.4923ZM43.8049 51.641C43.4335 50.8623 43.0082 50.1854 42.4871 49.5564C42.7986 49.5864 43.1101 49.6223 43.4156 49.6523C44.0805 49.7182 44.0625 48.6939 43.4156 48.622C42.7567 48.5441 42.1037 48.4662 41.4448 48.3944C42.3853 47.9751 43.3197 47.5438 44.2482 47.1005C44.0685 48.604 43.9247 50.1195 43.8049 51.641ZM61.6794 65.6219C61.1523 65.1487 60.6251 64.6814 60.098 64.2082C60.7509 64.4418 61.3799 64.7354 61.9729 65.0888C62.2485 65.2445 62.506 65.4122 62.7636 65.5859C62.4042 65.6039 62.0448 65.6159 61.6794 65.6219ZM68.8615 31.4124C70.5987 32.8141 72.2819 34.2338 73.7495 35.8691C71.7967 34.6471 69.8499 33.4251 67.8971 32.2091C68.2206 31.9455 68.5441 31.682 68.8615 31.4124ZM74.1987 26.5065C74.5641 27.0576 74.9235 27.6147 75.2889 28.1658C74.63 27.8843 73.9591 27.6387 73.2643 27.423C73.5757 27.1235 73.8872 26.818 74.1987 26.5065ZM60.2178 58.8111C62.0029 60.3865 63.7939 61.9559 65.579 63.5254C63.722 62.6748 61.8591 61.8242 60.0022 60.9736C60.08 60.2548 60.1519 59.5359 60.2178 58.8111ZM60.4155 56.487C62.1287 57.9905 63.8478 59.494 65.561 61.0035C63.8119 59.8774 62.0628 58.7632 60.3196 57.6371C60.3556 57.2477 60.3855 56.8704 60.4155 56.487ZM60.6192 53.7615C63.9556 56.0797 67.1184 58.6075 70.0955 61.3509C66.9088 59.2664 63.716 57.1878 60.5293 55.1033C60.5593 54.654 60.5892 54.2048 60.6192 53.7615ZM60.8288 50.2992C63.752 52.7432 66.6751 55.1931 69.5923 57.6371C66.6272 55.9179 63.6621 54.2048 60.703 52.4796C60.7449 51.7548 60.7869 51.024 60.8288 50.2992ZM61.1583 49.1731C61.0684 49.1132 60.9786 49.1012 60.8887 49.1012C60.9127 48.6459 60.9366 48.1847 60.9546 47.7295C63.0511 49.5265 65.1477 51.3175 67.2442 53.1146C65.2136 51.8027 63.1889 50.4909 61.1583 49.1731ZM61.0924 43.9797C63.2668 45.9504 65.4352 47.9271 67.6096 49.8979C65.4771 48.5621 63.2788 47.3221 61.0145 46.178C61.0385 45.4472 61.0684 44.7104 61.0924 43.9797ZM61.1822 40.122C64.2492 42.6798 67.3101 45.2436 70.377 47.8013C67.2981 46.0163 64.2132 44.2312 61.1343 42.4402C61.1463 41.6675 61.1643 40.8948 61.1822 40.122ZM61.4039 37.133C64.1174 39.4152 66.8429 41.6854 69.5624 43.9557C66.777 42.1826 63.9916 40.4036 61.2002 38.6305C61.2062 38.1752 61.2182 37.72 61.2182 37.2647C61.2841 37.2228 61.344 37.1749 61.4039 37.133ZM73.6776 43.5244C71.635 41.368 69.5983 39.2055 67.5557 37.0491C70.3291 38.912 73.0965 40.775 75.87 42.6439C75.816 44.2971 75.7502 45.9444 75.6723 47.5977C72.234 44.7164 68.7897 41.8292 65.3453 38.948C68.0289 40.4575 70.5388 42.2365 72.8869 44.3091C73.42 44.7823 74.1748 44.0455 73.6776 43.5244ZM75.9718 38.7383C75.9598 39.4092 75.9478 40.0801 75.9299 40.751C74.1268 38.936 72.3238 37.127 70.5148 35.324C72.3298 36.4621 74.1508 37.6002 75.9718 38.7383ZM67.5856 44.0336C70.2572 45.7407 72.9288 47.4419 75.6004 49.1491C75.5764 49.6583 75.5525 50.1674 75.5285 50.6766C72.8809 48.4603 70.2333 46.2439 67.5856 44.0336ZM76.0976 29.8191C76.0916 30.448 76.0856 31.077 76.0796 31.7059C75.2949 30.7835 74.5521 29.825 73.8633 28.8247C74.624 29.1062 75.3668 29.4357 76.0976 29.8191ZM76.0137 36.6717C74.7259 34.9406 73.1924 33.461 71.5511 32.0594C73.0786 32.4547 74.5761 32.9459 76.0557 33.5689C76.0437 34.6051 76.0317 35.6354 76.0137 36.6717ZM66.6452 33.2334C68.4362 35.0245 70.2273 36.8155 72.0183 38.6065C69.814 37.139 67.6036 35.6774 65.4053 34.2098C65.8186 33.8863 66.2319 33.5569 66.6452 33.2334ZM64.1713 35.1323L68.1787 39.3553C66.4056 38.2052 64.5487 37.1809 62.6079 36.2764C63.135 35.899 63.6561 35.5156 64.1713 35.1323ZM59.8644 62.3333C60.3736 62.8485 60.8767 63.3636 61.3859 63.8848C60.8647 63.6392 60.3256 63.4175 59.7626 63.2199C59.7925 62.9263 59.8285 62.6328 59.8644 62.3333ZM64.2072 65.544C63.2009 64.5137 62.1946 63.4834 61.1882 62.4531C63.3626 63.4475 65.537 64.4418 67.7114 65.4302C66.5434 65.4781 65.3753 65.5081 64.2072 65.544ZM68.3344 64.8132C67.1723 63.7829 66.0162 62.7466 64.8542 61.7163C66.6931 62.9204 68.5381 64.1184 70.371 65.3284C69.6822 65.3523 68.9933 65.3823 68.2985 65.4122C68.4902 65.2685 68.562 65.0169 68.3344 64.8132ZM71.605 64.8971C69.7361 63.2438 67.8672 61.5965 65.9923 59.9553C68.6579 61.6984 71.3175 63.4415 73.9831 65.1846C73.2403 65.2146 72.4975 65.2445 71.7548 65.2745C71.7667 65.1427 71.7248 65.0109 71.605 64.8971ZM67.7414 57.8168C69.9817 59.1166 72.228 60.4105 74.4683 61.7104C74.6659 61.8242 74.8756 61.7822 75.0373 61.6744C75.0074 62.6628 74.9774 63.6511 74.9595 64.6455C74.9355 64.5796 74.8996 64.5197 74.8456 64.4658C72.5934 62.1117 70.2213 59.8954 67.7414 57.8168ZM75.0673 60.8178C72.7192 58.8531 70.371 56.8823 68.0229 54.9176C69.8619 56.1096 71.7008 57.3016 73.5398 58.4997C74.055 58.8351 74.6779 58.0504 74.1987 57.6431C70.9461 54.8577 67.6875 52.0663 64.4349 49.2809C67.8372 51.2397 71.0899 53.432 74.1867 55.882C74.7318 56.3133 75.5046 55.5885 74.9714 55.0973C71.5751 52.0124 68.1787 48.9275 64.7823 45.8366C68.3224 47.8852 71.8566 49.9398 75.3967 51.9884C75.4207 52.0004 75.4387 52.0004 75.4626 52.0124C75.3129 54.9475 75.1691 57.8827 75.0673 60.8178ZM76.1275 25.4463C75.9239 25.3025 75.7142 25.2187 75.4866 25.1767C75.7022 24.9491 75.9179 24.7335 76.1335 24.5058C76.1275 24.8173 76.1275 25.1348 76.1275 25.4463ZM72.2459 28.3994C72.9767 29.5675 73.7614 30.6756 74.606 31.7479C73.0965 31.2088 71.5571 30.7835 69.9697 30.46C70.7364 29.7831 71.4972 29.1002 72.2459 28.3994ZM56.5938 65.7657C52.6703 65.8555 48.7408 65.9154 44.8173 65.9573C45.1228 59.3742 45.5181 52.821 45.9554 46.2559C49.3757 44.5547 52.7242 42.7098 55.9768 40.6971C57.2288 39.9244 58.4807 39.1157 59.7206 38.2831C59.2115 47.43 58.5705 56.5708 58.1872 65.7237C57.66 65.7357 57.1269 65.7537 56.5938 65.7657ZM59.529 65.1127C59.6727 65.3284 59.8524 65.5081 60.0501 65.6758C59.8524 65.6818 59.6547 65.6878 59.4631 65.6938C59.487 65.4961 59.505 65.3044 59.529 65.1127Z" fill="#2E7700" fill-opacity="0.27"/>
</g>
<defs>
<clipPath id="clip0_390_2866">
<rect width="111.548" height="69" fill="white"/>
</clipPath>
</defs>
</svg>
