<svg width="68" height="93" viewBox="0 0 68 93" fill="none" xmlns="http://www.w3.org/2000/svg">
<g clip-path="url(#clip0_390_2876)">
<path d="M63.2111 15.5737C61.4838 12.1548 57.3764 12.2141 53.9693 12.9383C55.3107 8.32031 53.352 2.8595 48.7578 0.793893C43.9202 -1.3845 38.3051 1.12629 35.9071 5.56023C33.3963 2.78234 29.8586 0.520852 26.0123 1.5774C22.8961 2.43807 20.5634 5.41184 20.8661 8.55774C18.106 6.1538 13.8798 5.73237 10.8229 8.0176C7.7898 10.285 7.01223 14.3628 8.32401 17.7224C4.30557 18.405 0.560163 21.2601 0.055631 25.5397C-0.39548 29.3741 2.15686 32.9593 5.65296 34.0752C0.00814554 39.3164 -0.454837 48.5463 5.77761 53.8765C12.2534 59.4204 21.5427 57.248 25.7393 50.4339C30.286 57.5626 40.8693 57.5388 45.4457 50.1786C51.0311 51.9712 57.6197 49.9531 60.8487 44.9018C64.0421 39.904 63.1696 33.256 59.3707 28.8993C62.5819 25.6465 65.4133 19.9305 63.2111 15.5737ZM59.0087 43.8275C56.0646 48.3445 50.1052 49.7691 45.2379 47.8696C44.8224 47.7094 44.2407 47.9765 44.0389 48.3564C40.1214 55.7403 29.9655 55.2536 26.6415 47.65C26.2319 46.7063 25.0092 47.1811 24.7065 47.9053C21.6733 55.1408 12.3662 57.3133 6.65609 51.8465C1.30806 46.7241 2.69107 38.1055 8.81074 34.2829C9.6536 33.7606 9.36276 32.2707 8.28246 32.3241C4.50738 32.5141 1.29025 28.7865 2.28151 25.0233C3.17186 21.6459 6.66796 19.7405 9.95632 19.6931C10.7398 19.6812 11.3037 18.7968 10.8704 18.0964C9.2203 15.4372 9.45179 11.6562 12.0872 9.66178C14.7523 7.64365 18.474 8.23128 20.7948 10.4809C21.1035 10.7777 21.4596 10.7302 21.6971 10.5284C22.4034 10.8489 23.4243 10.3266 23.1038 9.40654C22.0057 6.28438 24.748 3.42339 27.8346 3.34623C30.9567 3.26906 33.5565 5.61365 35.3135 7.9523C35.8299 8.64084 36.8627 8.58742 37.1476 7.71488C38.5959 3.30468 44.0983 0.514916 48.3898 2.85357C52.242 4.95479 53.441 10.2019 51.3754 13.9176C50.954 14.6833 51.6544 15.6805 52.5329 15.4194C55.5779 14.5231 60.8072 13.3834 61.6738 17.6809C62.4573 21.5628 59.9228 25.6703 57.1389 28.1098C56.7116 28.4838 56.7531 29.2198 57.1389 29.5997C60.8665 33.2501 61.935 39.3342 59.0087 43.8275Z" fill="#69C9F9" fill-opacity="0.28"/>
<path d="M65.1223 66.2776C66.6478 64.5919 68.0011 62.0217 67.1048 59.7187C66.2679 57.57 64.042 57.1723 61.9824 57.0951C60.2848 57.0298 58.1776 57.1129 56.9252 58.3535C56.9133 58.2941 56.8896 58.2288 56.848 58.1695C54.4025 54.6259 49.8677 55.8842 48.8645 59.6059C45.873 59.5584 42.9645 61.5053 42.638 64.7106C42.3116 67.8743 44.8224 70.4088 47.7486 70.8777C47.2797 72.2845 47.6952 73.9287 49.0129 74.8962C50.9717 76.3385 53.2807 75.3532 54.7171 73.7565C57.1685 75.9527 61.1573 76.7006 63.6918 74.1661C65.5319 72.332 65.8227 68.9842 64.2498 66.9661C64.5881 66.7762 64.8908 66.5328 65.1223 66.2776ZM61.7568 73.3885C59.4953 74.819 56.848 73.709 55.2513 71.8393C54.8774 71.4001 54.171 71.5781 53.898 72.0114C53.2688 73.531 52.2954 73.8515 50.9895 72.9552C49.1613 73.0146 48.7874 72.2548 49.8736 70.6759C50.3781 70.1833 50.0279 69.1208 49.2563 69.192C47.1313 69.3819 44.9767 68.2245 44.5612 65.9986C44.0388 63.2326 46.5259 60.9058 49.3335 61.3272C49.927 61.4163 50.3663 61.1017 50.4256 60.4962C50.7165 57.5462 54.2066 56.9348 56.0289 58.7986C56.1535 58.9292 56.3197 58.9589 56.4681 58.9292C56.4384 58.9827 56.4028 59.0301 56.3672 59.0836C55.922 59.8849 56.937 60.6268 57.6018 60.0392C59.1688 58.6562 62.012 58.4306 63.9945 59.1073C67.6984 60.3716 64.3804 65.2685 63.0567 65.9274C62.9974 65.8918 62.9439 65.8502 62.8786 65.8205C62.1545 65.4466 61.3532 66.3785 61.9824 66.9839C63.8936 68.818 64.2616 71.7978 61.7568 73.3885Z" fill="#69C9F9" fill-opacity="0.28"/>
<path d="M45.1598 83.8831C44.9283 83.6278 44.6019 83.3726 44.2398 83.1589C45.8602 82.0133 46.4063 79.6391 44.7087 78.0543C43.7531 77.1639 42.3226 76.9087 41.1592 77.5438C40.6903 77.799 40.1798 78.2857 39.8474 78.8378C38.9927 77.0867 36.8558 75.9827 34.9089 76.7187C33.3419 77.3123 31.9114 79.5975 32.3032 81.3545C29.8043 81.2417 27.1273 82.5119 27.1926 85.3907C27.2282 87.1239 29.4125 88.7444 30.9261 88.2399C30.7184 90.4004 32.5228 92.561 34.7012 92.9409C37.39 93.4039 40.6369 90.9584 40.7081 88.1508C42.0733 89.5635 44.8096 89.2727 45.7771 87.4682C46.4123 86.293 46.0264 84.8328 45.1598 83.8831ZM44.3348 86.9637C43.6047 88.1627 41.7053 87.9906 40.9158 86.9934C40.714 86.7381 40.4172 86.8568 40.2807 87.0765C39.9424 86.9221 39.4972 87.0349 39.331 87.5038C38.6543 89.4092 37.6809 91.5876 35.2295 91.4689C33.0214 91.362 31.8046 89.1183 32.042 87.1358C32.048 87.118 32.0598 87.1121 32.0658 87.0943C32.232 86.6906 31.7393 86.2336 31.3475 86.3761C30.7243 86.6016 30.1842 86.8034 29.555 86.4651C28.7893 86.0555 28.6706 85.2127 28.997 84.4529C29.6915 82.8325 31.401 82.5772 32.9917 82.5535C33.0511 82.6069 33.0986 82.6663 33.1639 82.7138C33.4488 82.9334 33.8168 82.7968 34.0245 82.5416C34.4341 82.4763 34.4816 81.9362 34.1551 81.7225C34.0779 81.1705 33.9058 80.6659 34.0364 80.0724C34.1907 79.3779 34.624 78.719 35.2532 78.3688C36.8262 77.4904 38.7018 78.9387 38.8799 80.565C38.9511 81.1942 39.6397 81.3782 40.0077 81.0755C40.3104 81.2358 40.7021 81.1942 40.8862 80.844C41.2186 80.2326 41.1355 79.5678 41.7706 79.1227C42.3819 78.6894 43.112 78.7784 43.6522 79.3007C44.9343 80.5472 43.8955 82.2508 42.4176 82.6425C42.3048 82.6722 42.2276 82.7375 42.1623 82.8147C41.9902 82.8859 41.8299 82.9809 41.6815 83.1292C41.3195 83.4913 41.5213 84.0315 41.9605 84.1917C42.7084 84.4707 43.3376 84.2452 43.9549 84.9099C44.4594 85.4679 44.7443 86.287 44.3348 86.9637Z" fill="#69C9F9" fill-opacity="0.28"/>
</g>
<defs>
<clipPath id="clip0_390_2876">
<rect width="67.3935" height="93" fill="white"/>
</clipPath>
</defs>
</svg>
