<svg width="1438" height="103" viewBox="0 0 1438 103" fill="none" xmlns="http://www.w3.org/2000/svg">
<path d="M1436.21 17.555L1434.81 17.3991C1434.71 18.9388 1432.73 17.8279 1429.29 18.0423C1429.75 19.3871 1428.2 20.0303 1425.6 20.3031C1423.32 19.582 1421.07 18.8609 1418.23 18.3541L1417.76 18.8414L1416.38 18.6854C1416.33 20.4396 1421.43 20.3616 1420.07 22.564C1419.11 23.4216 1416.41 23.6554 1415.46 24.513C1419.42 25.585 1416.06 30.1262 1411.77 30.3406C1405.61 29.0347 1404.49 32.0167 1397.02 31.3151C1396.34 33.2056 1399.37 34.8233 1401.62 33.9073C1399.45 33.8098 1401.7 32.6989 1402.54 32.6014C1407.72 32.2896 1407.72 33.8098 1409.91 34.5505C1407.53 35.3301 1407.52 36.9478 1404.37 37.4545C1409.19 39.5594 1400.12 41.5669 1397.92 43.2821C1395.66 42.444 1394.04 41.411 1392.39 40.3585C1387.28 40.3001 1382.43 40.3196 1379.49 41.0017C1378.93 41.5669 1382.18 42.3465 1379.49 42.6194C1372.57 42.2881 1368.3 40.6314 1361.04 41.333C1359.19 41.0017 1359.58 39.9103 1356.43 40.0467C1354.13 39.9882 1353.57 40.5534 1351.82 40.6899C1351.17 41.489 1355.87 42.0152 1352.74 42.6389C1349.7 42.6194 1351.14 41.0407 1347.2 41.3525C1348.12 39.5205 1344.12 39.4035 1345.35 37.474C1340.79 36.8698 1339.06 37.2791 1337.05 35.8563C1334.54 35.6224 1335.19 36.4995 1333.36 36.4995L1333.83 36.8308L1333.36 37.1427C1333.41 38.9552 1337.36 39.4035 1337.05 41.3525C1339.71 41.3915 1343.1 41.1771 1344.44 41.6839C1342.86 43.6719 1346.22 47.4335 1342.59 48.7978C1339.26 48.2715 1338.13 48.8563 1335.22 48.4664C1333.23 49.7333 1335.39 50.8053 1336.15 52.0332C1332.68 53.4949 1339.07 56.0676 1331.54 56.8862C1328.61 54.8982 1325.23 53.0661 1320.48 51.7018L1320.01 52.1891L1318.63 52.0332C1310.56 52.8128 1304.99 52.4035 1297.42 52.0332C1297.42 51.8188 1297.42 51.6044 1297.42 51.39C1300.8 50.0841 1307.2 49.8503 1307.56 47.5114C1304.77 47.6284 1305.64 46.459 1304.81 45.8937C1306.03 45.8937 1307.27 45.8937 1308.5 45.8937C1309.78 44.0812 1309.08 43.1651 1307.57 41.6839C1312.63 42.2686 1310.49 40.339 1314.03 40.378C1317.17 40.1441 1315.19 41.6839 1318.63 41.3525C1325.84 39.8128 1316.79 36.363 1323.24 34.5505C1321.63 34.5699 1320.37 34.4725 1319.55 34.2191L1318.17 34.375L1318.63 33.8878C1314.08 33.7124 1312.11 32.9523 1307.56 33.5565C1301.29 31.9972 1306.46 28.2161 1302.95 25.1367C1302.31 24.5715 1300.74 24.3571 1300.19 23.8503C1299.3 23.0123 1300.27 21.8039 1297.42 21.2581L1296.96 21.7454L1295.58 21.5895C1293.64 22.8174 1296.47 23.48 1296.49 24.4935C1296.52 25.4485 1293.73 28.0602 1293.73 28.0602C1294.5 29.2686 1299.47 29.3661 1298.34 30.9838C1297 32.8938 1289.4 32.9133 1281.75 33.5759C1281.95 32.543 1280.12 32.2116 1280.82 30.9838C1281.91 30.6134 1284.08 30.6134 1286.35 30.6524C1286.41 28.45 1280.92 26.2866 1276.2 27.7289C1270.4 27.9433 1270.44 26.0722 1266.07 25.7799C1264.89 25.7994 1264.79 26.1892 1263.29 26.1112C1261.54 27.2221 1263.97 29.7949 1258.7 29.6779C1258.49 29.1127 1259.61 28.0602 1256.85 28.3721C1251.18 29.522 1257.81 33.0107 1249.47 33.2251C1244.66 32.3286 1237.83 32.1337 1234.73 30.6329C1237.65 29.483 1235.26 29.1322 1234.73 27.7094C1236.47 27.7874 1236.76 27.3391 1238.42 27.3781C1238.48 25.9163 1241.92 24.9613 1243.03 23.4995C1243.01 23.5385 1241.74 22.9733 1242.11 22.525C1243.86 20.4006 1242.46 18.5295 1244.89 16.6974C1247.64 17.5745 1250.5 16.522 1251.34 15.7229C1253.28 16.3271 1257.24 16.2297 1256.86 17.6525C1253.13 17.7304 1251.17 21.0048 1255.94 21.2192C1261.66 18.8998 1267.77 16.7364 1275.31 15.0603C1269.59 13.657 1262.58 12.7214 1255.03 12.7994C1254.94 13.3062 1255.15 13.9298 1253.17 13.7739C1252.3 13.1697 1255.94 12.6825 1253.17 12.4876C1254.12 13.4621 1251.13 13.0528 1249.49 13.1307C1246.45 12.6045 1245.12 11.8639 1247.66 10.8699C1242.42 11.0063 1233.21 12.3706 1231.99 10.2267C1237.98 10.3047 1237.32 6.58204 1235.67 5.04231L1234.29 5.19823L1232.91 5.04231C1230.91 5.74396 1227.24 5.8609 1224.62 6.34816C1218.55 5.02282 1210.38 4.43812 1205.26 2.78145C1202.65 2.93737 1201.34 3.56106 1198.8 3.75596C1196.19 3.05431 1191.87 2.33318 1187.74 3.11278L1186.53 3.54157C1185.81 3.36616 1185.18 3.2882 1184.51 3.17126L1185.89 2.80094C1184.35 1.98235 1182.28 1.35867 1184.05 0.208747C1182.28 -0.414939 1180.34 0.55957 1177.59 0.54008C1176.88 2.74247 1179.53 3.73647 1184.96 3.77545C1184.96 4.10678 1185.72 4.16525 1185.89 4.41863C1180.17 4.26271 1186.74 6.42612 1182.2 6.69898C1179.27 6.97184 1179.35 6.19223 1177.59 6.0558C1176.66 6.48459 1176.07 7.03031 1174.83 7.34215C1173.81 6.50408 1169.88 6.69898 1166.53 6.69898L1166.99 7.18623L1165.61 7.03031C1165.1 7.82941 1162.05 7.71247 1162.85 8.95984C1165.1 9.75894 1166.85 8.72596 1170.22 8.95984C1170.28 9.15474 1170.35 9.34964 1171.14 9.29117L1172.52 9.13525L1173.9 9.29117C1177.07 8.66749 1185.23 8.12176 1186.81 9.62251C1183.37 15.7229 1170.79 10.5775 1165.6 14.8069C1168.24 15.528 1172 14.2027 1172.98 15.7814C1171.16 16.4636 1172.28 17.9253 1172.98 18.6854L1174.67 18.5295C1174.67 18.5295 1175.75 19.0168 1179.44 17.3991C1181.06 17.6914 1182.13 18.1787 1184.05 18.3736C1181.1 18.3151 1179.27 18.8609 1175.75 19.0168L1174.37 19.1922L1172.98 19.0168C1171.59 20.6929 1168.79 21.8623 1163.75 22.2521L1164.22 22.7394L1164.67 23.2267C1164.67 23.558 1165.43 23.6165 1165.6 23.8698C1164.33 24.3961 1161.22 24.2791 1161.91 25.4875C1164.1 26.9493 1171.95 25.1562 1167.43 24.513L1166.05 24.3571C1166.3 24.1427 1166.41 23.9283 1166.52 23.7139L1167.43 23.8698C1170.71 24.513 1170.79 23.4411 1174.82 23.5385C1181.68 24.8443 1176.76 28.1577 1172.05 29.0347C1170.08 28.4305 1170.39 27.0272 1167.45 26.7739C1167.65 27.7094 1167.22 28.411 1165.6 28.7229C1160.18 29.0152 1157.23 28.4305 1156.38 27.1052C1149.85 27.1832 1150.23 29.6974 1145.32 30.3406C1141.54 29.6194 1144.35 26.579 1143.47 24.8249C1140.75 25.2926 1137.41 25.8968 1135.17 24.8249C1135.17 25.2536 1135.17 25.6824 1135.17 26.1307C1127.13 27.3976 1122.96 30.0482 1113.05 30.6719C1104.63 29.1907 1096.89 31.7049 1088.16 30.3406C1088.16 30.9838 1088.16 31.6269 1088.16 32.2701L1089.54 32.1142L1090.01 32.6014C1092.99 33.6344 1090.52 37.2401 1083.55 36.8113C1081.91 37.8443 1080.79 39.0722 1078.03 39.7154C1066.01 39.6179 1053.18 34.6869 1065.12 31.9388L1063.72 31.5685L1064.19 30.9838C1059.71 31.5879 1057.95 31.0032 1056.82 29.6974C1056.35 30.4965 1055.08 31.0227 1054.04 31.6464L1054.51 32.2506C1053.02 32.0752 1051.4 31.9193 1050.44 32.0947C1048.81 32.4845 1048.82 33.1472 1048.97 33.7708L1047.59 33.6149C1047.03 34.1996 1050.3 34.9598 1047.59 35.2326C1043.78 34.5115 1041.07 33.42 1039.29 31.9972C1042.08 31.7828 1044.61 31.4905 1044.81 30.3796C1039.34 27.5145 1030.31 28.7034 1021.76 28.4305C1021.6 27.3781 1023.92 26.8713 1019.91 26.8129C1018.01 26.9103 1019.05 28.0212 1017.15 28.0992C1010.31 27.4755 1009.11 31.4905 1005.16 32.9523C998.729 32.9133 1000.63 31.0617 999.632 29.7169C993.828 30.1652 994.32 32.8158 991.331 34.2581C989.153 33.7903 989.605 33.5759 986.723 33.9268C985.382 35.5834 980.468 37.6494 984.877 39.423C982.619 40.7094 979.033 39.5205 977.493 41.0407C976.178 39.6764 971.862 39.345 970.122 38.1172C969.166 38.9747 969.378 40.2416 965.514 40.0662C967.147 37.7274 965.939 36.7528 959.989 35.8563C957.359 35.4665 952.087 36.6554 951.689 34.8818C952.552 34.1022 955.394 34.0242 954.464 32.6209C948.143 33.7903 949.046 30.4185 942.472 30.6914C940.307 31.8413 944.676 33.0107 946.164 33.9268C944.065 33.8293 942.698 34.0047 942.472 34.5699C944.822 34.6089 944.305 35.6419 944.318 36.4995C939.284 36.9088 938.421 41.0797 931.409 38.7603C932.711 41.5085 919.31 42.9312 916.654 40.378C911.103 40.378 907.172 40.9238 900.983 40.7094C900.385 39.7348 899.549 38.8383 896.375 38.7603C896.069 39.5205 895.432 40.1636 893.612 40.378C888.101 38.507 885.192 37.5714 877.941 36.1681L877.476 36.6554L876.095 36.4995C875.59 37.7858 875.59 37.474 876.095 38.7603C871.553 38.468 874.369 40.7483 868.724 40.0662C866.639 39.3645 869.481 38.9552 868.724 37.8053C863.053 35.9538 860.318 31.5685 855.815 30.3601C854.766 29.0152 857.754 29.0932 857.661 28.0992C855.43 27.9628 855.656 28.6839 853.053 28.411C853 28.2161 852.92 28.0407 852.137 28.0992L851.672 28.5865L851.207 28.0992C849.295 28.2941 848.232 28.7814 846.599 29.0737C843.504 27.3781 840.822 28.7424 836.452 29.0737C836.373 27.2611 836.917 25.2341 833.677 24.552C834.566 25.9553 830.091 25.4485 829.068 26.1697C830.861 27.7484 826.571 30.8668 828.152 32.3091C824.101 31.9777 825.124 33.4005 821.684 33.2836C818.603 32.0947 818.138 29.9898 813.397 29.405C812.64 31.471 813.304 35.2131 806.943 36.2071C799.319 35.2911 802.374 33.3421 801.405 31.6659L800.023 31.8218L800.488 31.3346C795.681 31.2956 791.71 31.2566 789.425 29.7169H788.509V29.3856C786.45 29.9508 786.318 31.2176 783.901 31.6464V31.9778L780.673 31.1592L782.055 31.3346C780.554 29.3661 772.068 31.2176 767.3 30.0287C766.901 31.549 770.036 33.1082 765.454 33.5759C761.31 30.5745 757.578 29.0347 747.007 28.7229C745.825 29.5999 744.749 30.516 745.161 31.9583C750.101 33.2641 757.047 35.7783 756.224 37.1427C760.354 36.5385 766.211 36.5579 769.133 35.525C770.341 36.402 772.068 37.0842 774.657 37.474C774.007 38.429 774.405 39.7543 771.895 40.0662C769.04 39.9882 768.309 39.1696 766.357 38.7603C763.435 38.7019 763.276 39.6179 759.902 39.4035C750.779 37.7663 740.101 36.6359 736.861 32.9328C738.494 32.8548 741.482 33.2641 740.553 32.2896C737.432 31.1202 731.548 30.9253 729.49 29.3661L728.414 29.8533L726.781 29.6974C726.462 31.1007 724.31 31.8413 720.326 31.9583C720.273 31.7634 720.18 31.5685 719.396 31.6269L718.932 32.1142L717.55 31.9583C713.062 32.5819 719.715 32.8353 718.467 34.2191C717.272 34.6674 714.456 34.531 712.012 34.5505C709.356 32.7768 710.512 29.6779 703.712 29.3661C701.693 30.3796 701.494 32.0362 700.95 33.5759C698.679 33.537 696.501 33.537 695.412 33.9073C694.269 35.8173 696.354 36.7139 695.412 37.7858C693.473 36.7528 689.462 36.4215 686.195 35.8368C682.45 34.3556 679.833 32.465 673.286 31.9583C674.003 33.8683 677.177 36.8698 673.286 38.429C672.051 38.429 670.829 38.429 669.594 38.429C666.805 40.6509 658.266 42.9507 652.077 40.378C655.277 39.7738 658.412 39.1501 659.448 37.7858C658.159 37.7079 658.398 37.0842 657.602 36.8113C652.276 37.1232 647.893 38.2731 642.86 37.7858C642.807 37.5909 642.727 37.396 641.93 37.4545L640.549 37.6104L641.001 37.1232C637.68 38.2341 632.169 38.5654 625.329 38.429L625.781 39.0332C624.559 38.9357 623.324 38.8968 622.102 38.8188L623.483 38.4485C623.271 36.48 616.445 36.8308 613.337 35.8563C613.337 35.6419 613.337 35.4275 613.337 35.2131L611.65 35.369L610.575 34.8818C609.193 34.6479 609.751 34.3166 607.812 34.2386C606.325 34.1607 601.052 34.2971 598.596 34.5699C598.396 34.5894 597.639 35.408 596.75 35.5445C588.861 36.6359 578.09 35.9148 571.862 35.5445V35.8758H570.945C564.863 37.7858 549.736 37.7858 542.365 36.2071C542.299 34.4725 531.581 31.4125 536.84 28.7619C533.281 28.7034 532.511 27.6899 533.148 26.1697C527.717 25.9163 521.156 23.1292 516.561 25.5265C520.625 25.7409 517.57 27.4365 518.407 28.4305C518.991 29.1322 521.116 29.3076 521.169 30.0482C521.262 31.3346 518.54 32.1727 517.49 33.5954C516.468 34.9792 519.297 36.7918 514.728 37.474C513.639 37.1037 511.461 37.1037 509.19 37.1427C504.529 35.2326 505.578 31.2956 497.211 30.6719C497.091 31.9972 498.818 32.6989 498.141 34.2386C496.401 34.1607 496.109 34.6089 494.449 34.5699C494.395 35.7783 495.378 36.6164 496.295 37.474C492.417 39.3256 486.892 40.0467 480.623 39.7348C480.464 40.2221 480.955 40.9238 479.707 41.0407C470.729 41.6839 474.023 37.513 465.882 37.474C463.77 37.474 463.279 39.0722 458.498 38.4485C458.657 39.5789 458.259 40.5145 456.665 41.0407C454.474 41.2746 452.269 41.5474 450.211 41.0407L448.829 40.8848L449.294 40.3975C448.683 40.3975 448.059 40.3975 447.448 40.3975C446.519 39.5399 445.921 38.5654 442.84 38.4485C441.472 38.6239 440.529 38.9357 439.161 39.0917C439.825 40.5534 438.856 40.7094 440.077 41.6839C437.474 41.411 437.687 42.1321 435.469 42.0152C432.029 40.3001 426.385 39.384 426.252 36.519C428.058 36.0707 431.511 36.2071 433.623 35.8758C434.367 36.48 434.818 37.1816 436.385 37.4935C442.866 36.4995 445.469 35.4665 452.057 35.8758C450.875 34.0242 446.585 33.2641 445.602 31.3541C442.03 31.5295 441.1 30.7694 437.302 31.0227L437.767 31.51L431.392 29.6194C429.732 29.0932 428.072 28.567 426.239 28.0992H428.072C424.34 26.501 421.192 24.6884 412.401 24.8638C411.351 26.8518 418.603 25.9358 418.855 27.456C416.969 28.6839 413.357 27.3976 410.555 28.4305C409.386 30.5939 409.997 32.0362 415.163 32.6404C412.985 34.1996 414.353 35.2716 414.247 37.1621C416.531 37.7663 421.192 37.5325 421.617 38.7798C418.642 39.3645 415.84 39.9882 413.33 40.7288C414.034 39.0722 409.585 39.0332 411.484 37.8248C405.109 37.6299 404.897 39.5984 399.492 39.7738C391.125 37.6299 379.451 36.6749 380.129 31.3736C378.402 31.3346 377.047 31.1592 376.437 30.7304C377.194 29.6974 377.021 28.3331 378.283 27.495C374.484 27.7484 376.556 25.9553 372.745 26.2087C367.538 28.0602 357.432 27.1052 349.703 28.1577C349.41 30.8668 345.439 32.2701 341.402 33.6539C338.228 32.7184 334.523 31.9778 329.423 31.7049C326.833 33.3616 321.069 31.9583 315.598 32.6794C315.611 32.3481 314.854 32.2896 314.681 32.0362C315.545 30.3601 315.385 29.0152 313.752 27.495C309.701 27.1832 307.324 27.573 303.619 27.8263C306.713 28.8398 301.148 29.7364 303.619 30.7499C300.511 31.2761 297.403 31.8023 294.402 32.3676C292.091 32.426 291.52 31.8803 290.71 31.393C292.689 27.7874 286.394 27.0857 284.255 24.9223C279.408 24.513 278.784 25.6045 275.039 25.5655C275.039 26.3256 275.039 27.0662 275.039 27.8263C259.832 27.495 254.746 32.2896 251.983 35.2716C248.105 34.9013 243.763 34.7064 240.004 34.2971C237.229 34.7259 235.622 35.5639 236.312 37.2011C225.17 40.495 217.693 36.0902 214.187 32.9912C219.964 32.9718 217.029 29.8923 220.641 29.1127C224.745 29.8533 228.251 30.7499 232.633 29.7559C232.74 25.6629 217.254 24.1622 207.745 25.546C198.223 26.6374 186.696 25.6434 179.166 26.1892C179.976 25.1367 176.775 25.5265 176.403 24.8833C166.031 25.1952 157.226 27.5145 147.823 26.501C143.48 28.489 133.971 28.7034 128.46 28.7619C129.974 27.3586 137.079 27.9043 135.831 25.5265C131.767 24.9028 125.578 24.4935 122.922 25.8383L123.387 26.3256L122.006 26.4815C125.193 29.4635 115.259 28.6059 109.097 29.0737C108.512 27.6704 104.302 27.5145 103.572 26.1697C100.823 26.5985 97.423 26.1892 96.1879 25.1952C104.993 25.1562 94.2755 20.615 99.8799 19.6989L99.4151 19.3676L99.8799 19.0363C93.8771 18.51 98.6316 16.2102 96.1879 14.5145C88.4984 13.9883 81.2472 10.9283 73.146 12.5655C75.8419 19.5235 86.8782 23.1682 92.5092 29.7169C85.7626 30.5939 77.9801 29.3466 72.2296 30.3601C73.3584 32.543 79.1223 33.1277 82.3627 34.5699C78.5778 36.363 68.1524 35.8368 62.9995 37.1621C59.3739 36.3241 63.7034 35.6809 62.0832 34.9013C56.917 34.1412 55.1108 35.4275 51.9367 36.1876C54.4335 38.4095 54.6194 41.333 47.3283 41.6839C47.7268 42.405 49.4533 43.438 46.412 43.6329C42.295 43.2431 38.5233 42.7363 34.4195 42.3465C34.4727 41.9372 35.6015 41.8983 35.3492 41.372C27.8589 40.7678 22.2943 39.4815 22.4404 36.1876C19.0671 35.9732 18.9077 36.8893 15.9993 36.8308C15.0298 36.0902 15.4149 34.8818 14.1532 34.2386C9.51829 34.453 7.7254 33.6929 3.09045 33.9073C-3.51005 35.2716 2.9842 38.5265 -0.60158 40.0662C-0.734387 40.0272 -0.880474 40.0077 -1 39.9882V103H1045.36H1052.49H1184.27H1190.69H1194.09H1210.94H1249.99H1281.57H1373.03H1379.02H1438V20.2252L1437.75 20.1472L1438 20.1667V17.672C1437.84 17.594 1437.69 17.4965 1437.59 17.3991L1436.21 17.555Z" fill="url(#paint0_linear_390_3233)"/>
<defs>
<linearGradient id="paint0_linear_390_3233" x1="1629.47" y1="6.35166" x2="790.201" y2="845.752" gradientUnits="userSpaceOnUse">
<stop stop-color="#5D2C9E"/>
<stop offset="1" stop-color="#8D63C6"/>
</linearGradient>
</defs>
</svg>
