<svg width="115" height="23" viewBox="0 0 115 23" fill="none" xmlns="http://www.w3.org/2000/svg">
<path d="M10.5489 2.92705C10.8483 2.00574 12.1517 2.00574 12.4511 2.92705L13.8574 7.25532C13.9913 7.66734 14.3752 7.9463 14.8085 7.9463H19.3595C20.3282 7.9463 20.731 9.18592 19.9473 9.75532L16.2654 12.4303C15.9149 12.685 15.7683 13.1364 15.9021 13.5484L17.3085 17.8766C17.6078 18.798 16.5533 19.5641 15.7696 18.9947L12.0878 16.3197C11.7373 16.065 11.2627 16.065 10.9122 16.3197L7.23037 18.9947C6.44665 19.5641 5.39217 18.798 5.69153 17.8766L7.09787 13.5484C7.23174 13.1364 7.08508 12.685 6.7346 12.4303L3.05275 9.75532C2.26904 9.18592 2.67181 7.9463 3.64053 7.9463H8.19155C8.62477 7.9463 9.00873 7.66734 9.1426 7.25532L10.5489 2.92705Z" fill="#FFD02B"/>
<path d="M33.5489 2.92705C33.8483 2.00574 35.1517 2.00574 35.4511 2.92705L36.8574 7.25532C36.9913 7.66734 37.3752 7.9463 37.8085 7.9463H42.3595C43.3282 7.9463 43.731 9.18592 42.9473 9.75532L39.2654 12.4303C38.9149 12.685 38.7683 13.1364 38.9021 13.5484L40.3085 17.8766C40.6078 18.798 39.5533 19.5641 38.7696 18.9947L35.0878 16.3197C34.7373 16.065 34.2627 16.065 33.9122 16.3197L30.2304 18.9947C29.4467 19.5641 28.3922 18.798 28.6915 17.8766L30.0979 13.5484C30.2317 13.1364 30.0851 12.685 29.7346 12.4303L26.0527 9.75532C25.269 9.18592 25.6718 7.9463 26.6405 7.9463H31.1915C31.6248 7.9463 32.0087 7.66734 32.1426 7.25532L33.5489 2.92705Z" fill="#FFD02B"/>
<path d="M56.5489 2.92705C56.8483 2.00574 58.1517 2.00574 58.4511 2.92705L59.8574 7.25532C59.9913 7.66734 60.3752 7.9463 60.8085 7.9463H65.3595C66.3282 7.9463 66.731 9.18592 65.9473 9.75532L62.2654 12.4303C61.9149 12.685 61.7683 13.1364 61.9021 13.5484L63.3085 17.8766C63.6078 18.798 62.5533 19.5641 61.7696 18.9947L58.0878 16.3197C57.7373 16.065 57.2627 16.065 56.9122 16.3197L53.2304 18.9947C52.4467 19.5641 51.3922 18.798 51.6915 17.8766L53.0979 13.5484C53.2317 13.1364 53.0851 12.685 52.7346 12.4303L49.0527 9.75532C48.269 9.18592 48.6718 7.9463 49.6405 7.9463H54.1915C54.6248 7.9463 55.0087 7.66734 55.1426 7.25532L56.5489 2.92705Z" fill="#FFD02B"/>
<path d="M79.5489 2.92705C79.8483 2.00574 81.1517 2.00574 81.4511 2.92705L82.8574 7.25532C82.9913 7.66734 83.3752 7.9463 83.8085 7.9463H88.3595C89.3282 7.9463 89.731 9.18592 88.9473 9.75532L85.2654 12.4303C84.9149 12.685 84.7683 13.1364 84.9021 13.5484L86.3085 17.8766C86.6078 18.798 85.5533 19.5641 84.7696 18.9947L81.0878 16.3197C80.7373 16.065 80.2627 16.065 79.9122 16.3197L76.2304 18.9947C75.4467 19.5641 74.3922 18.798 74.6915 17.8766L76.0979 13.5484C76.2317 13.1364 76.0851 12.685 75.7346 12.4303L72.0527 9.75532C71.269 9.18592 71.6718 7.9463 72.6405 7.9463H77.1915C77.6248 7.9463 78.0087 7.66734 78.1426 7.25532L79.5489 2.92705Z" fill="#FFD02B"/>
<path d="M102.549 2.92705C102.848 2.00574 104.152 2.00574 104.451 2.92705L105.857 7.25532C105.991 7.66734 106.375 7.9463 106.808 7.9463H111.359C112.328 7.9463 112.731 9.18592 111.947 9.75532L108.265 12.4303C107.915 12.685 107.768 13.1364 107.902 13.5484L109.308 17.8766C109.608 18.798 108.553 19.5641 107.77 18.9947L104.088 16.3197C103.737 16.065 103.263 16.065 102.912 16.3197L99.2304 18.9947C98.4467 19.5641 97.3922 18.798 97.6915 17.8766L99.0979 13.5484C99.2317 13.1364 99.0851 12.685 98.7346 12.4303L95.0527 9.75532C94.269 9.18592 94.6718 7.9463 95.6405 7.9463H100.192C100.625 7.9463 101.009 7.66734 101.143 7.25532L102.549 2.92705Z" fill="#FFD02B"/>
</svg>
