<svg width="14" height="14" viewBox="0 0 14 14" fill="none" xmlns="http://www.w3.org/2000/svg">
<path d="M7.528 0.00443161C8.44525 0.12814 9.62802 3.05792 9.62802 3.05792C9.62802 3.05792 12.76 3.46525 13.113 4.32216C13.463 5.17907 11.5168 7.66833 11.5168 7.66833C11.5168 7.66833 12.7298 10.586 12.1625 11.3192C11.5953 12.0524 8.46637 11.6119 8.46637 11.6119C8.46637 11.6119 6.54739 14.1193 5.62712 13.9956C4.70986 13.8719 3.52708 10.9421 3.52708 10.9421C3.52708 10.9421 0.395146 10.5347 0.0421239 9.67784C-0.307881 8.82093 1.63826 6.33167 1.63826 6.33167C1.63826 6.33167 0.425308 3.41396 0.992557 2.68076C1.55981 1.94756 4.68873 2.38808 4.68873 2.38808C4.68873 2.38808 6.61075 -0.119277 7.528 0.00443161Z" fill="#C3FF77"/>
</svg>
